<svg width="224" height="164" viewBox="0 0 224 164" fill="none" xmlns="http://www.w3.org/2000/svg">
<path d="M30.043 26.0957H26.7041L26.0693 28H24.0444L27.4849 18.7578H29.2495L32.709 28H30.6841L30.043 26.0957ZM27.2183 24.5532H29.5288L28.3672 21.0938L27.2183 24.5532ZM39.6406 24.6294C39.6406 25.7297 39.4058 26.5887 38.936 27.2065C38.4663 27.8201 37.8104 28.127 36.9683 28.127C36.2235 28.127 35.6289 27.8413 35.1846 27.27L35.1021 28H33.4517V18.25H35.2861V21.7476C35.7093 21.2524 36.2658 21.0049 36.9556 21.0049C37.7935 21.0049 38.4494 21.3138 38.9233 21.9316C39.4015 22.5452 39.6406 23.4106 39.6406 24.5278V24.6294ZM37.8062 24.4961C37.8062 23.8021 37.6961 23.2964 37.4761 22.979C37.256 22.6574 36.9281 22.4966 36.4922 22.4966C35.9082 22.4966 35.5062 22.7357 35.2861 23.2139V25.9243C35.5104 26.4067 35.9167 26.6479 36.5049 26.6479C37.0973 26.6479 37.4867 26.356 37.6729 25.772C37.7617 25.4927 37.8062 25.0674 37.8062 24.4961ZM40.4912 24.5024C40.4912 23.8211 40.6224 23.2139 40.8848 22.6807C41.1471 22.1475 41.5238 21.7349 42.0146 21.4429C42.5098 21.1509 43.0832 21.0049 43.7349 21.0049C44.6616 21.0049 45.417 21.2884 46.001 21.8555C46.5892 22.4225 46.9172 23.1927 46.9849 24.166L46.9976 24.6357C46.9976 25.6895 46.7035 26.5358 46.1152 27.1748C45.527 27.8096 44.7378 28.127 43.7476 28.127C42.7573 28.127 41.966 27.8096 41.3735 27.1748C40.7853 26.54 40.4912 25.6768 40.4912 24.585V24.5024ZM42.3257 24.6357C42.3257 25.2874 42.4484 25.7868 42.6938 26.1338C42.9393 26.4766 43.2905 26.6479 43.7476 26.6479C44.1919 26.6479 44.5389 26.4787 44.7886 26.1401C45.0382 25.7974 45.1631 25.2515 45.1631 24.5024C45.1631 23.8634 45.0382 23.3683 44.7886 23.0171C44.5389 22.6659 44.1877 22.4902 43.7349 22.4902C43.2863 22.4902 42.9393 22.6659 42.6938 23.0171C42.4484 23.3641 42.3257 23.9036 42.3257 24.6357ZM52.2407 27.3018C51.7879 27.8519 51.1616 28.127 50.3618 28.127C49.6255 28.127 49.0627 27.9154 48.6733 27.4922C48.2882 27.069 48.0915 26.4491 48.083 25.6323V21.1318H49.9175V25.5688C49.9175 26.284 50.2433 26.6416 50.895 26.6416C51.5171 26.6416 51.9445 26.4258 52.1772 25.9941V21.1318H54.0181V28H52.2915L52.2407 27.3018ZM57.5981 19.4434V21.1318H58.7725V22.4775H57.5981V25.9053C57.5981 26.1592 57.6468 26.3411 57.7441 26.4512C57.8415 26.5612 58.0277 26.6162 58.3027 26.6162C58.5059 26.6162 58.6857 26.6014 58.8423 26.5718V27.9619C58.4826 28.0719 58.1123 28.127 57.7314 28.127C56.445 28.127 55.7891 27.4774 55.7637 26.1782V22.4775H54.7607V21.1318H55.7637V19.4434H57.5981Z" fill="#AAAAAA"/>
<path d="M69.7295 24.7437V28H67.8252V18.7578H71.4307C72.1247 18.7578 72.734 18.8848 73.2588 19.1387C73.7878 19.3926 74.194 19.7544 74.4775 20.2241C74.7611 20.6896 74.9028 21.2207 74.9028 21.8174C74.9028 22.723 74.5918 23.4382 73.9697 23.9629C73.3519 24.4834 72.495 24.7437 71.3989 24.7437H69.7295ZM69.7295 23.2012H71.4307C71.9342 23.2012 72.3172 23.0827 72.5796 22.8457C72.8462 22.6087 72.9795 22.2702 72.9795 21.8301C72.9795 21.3773 72.8462 21.0112 72.5796 20.7319C72.313 20.4526 71.9448 20.3088 71.4751 20.3003H69.7295V23.2012ZM79.9556 22.8521C79.7059 22.8182 79.4858 22.8013 79.2954 22.8013C78.6014 22.8013 78.1465 23.0361 77.9307 23.5059V28H76.0962V21.1318H77.8291L77.8799 21.9507C78.248 21.3201 78.758 21.0049 79.4097 21.0049C79.6128 21.0049 79.8032 21.0324 79.981 21.0874L79.9556 22.8521ZM83.8784 28.127C82.8713 28.127 82.0503 27.818 81.4155 27.2002C80.785 26.5824 80.4697 25.7593 80.4697 24.731V24.5532C80.4697 23.8634 80.603 23.2477 80.8696 22.7061C81.1362 22.1602 81.5129 21.7412 81.9995 21.4492C82.4904 21.153 83.049 21.0049 83.6753 21.0049C84.6147 21.0049 85.3532 21.3011 85.8906 21.8936C86.4323 22.486 86.7031 23.326 86.7031 24.4136V25.1626H82.3296C82.3888 25.6112 82.5666 25.9709 82.8628 26.2417C83.1632 26.5125 83.542 26.6479 83.999 26.6479C84.7057 26.6479 85.258 26.3919 85.6558 25.8799L86.5571 26.8892C86.2821 27.2785 85.9097 27.5832 85.4399 27.8032C84.9702 28.019 84.4497 28.127 83.8784 28.127ZM83.6689 22.4902C83.305 22.4902 83.0088 22.613 82.7803 22.8584C82.556 23.1038 82.4121 23.4551 82.3486 23.9121H84.9004V23.7661C84.8919 23.3599 84.7819 23.0467 84.5703 22.8267C84.3587 22.6024 84.0583 22.4902 83.6689 22.4902ZM91.4702 26.1021C91.4702 25.8778 91.3581 25.7021 91.1338 25.5752C90.9137 25.444 90.5583 25.3276 90.0674 25.2261C88.4339 24.8833 87.6172 24.1893 87.6172 23.144C87.6172 22.5347 87.869 22.0269 88.3726 21.6206C88.8804 21.2101 89.5426 21.0049 90.3594 21.0049C91.2311 21.0049 91.9272 21.2101 92.4478 21.6206C92.9725 22.0311 93.2349 22.5643 93.2349 23.2202H91.4004C91.4004 22.9578 91.3158 22.742 91.1465 22.5728C90.9772 22.3993 90.7127 22.3125 90.353 22.3125C90.0441 22.3125 89.805 22.3823 89.6357 22.522C89.4665 22.6616 89.3818 22.8394 89.3818 23.0552C89.3818 23.2583 89.4771 23.4233 89.6675 23.5503C89.8621 23.673 90.188 23.7809 90.645 23.874C91.1021 23.9629 91.4871 24.0645 91.8003 24.1787C92.7694 24.5342 93.2539 25.1499 93.2539 26.0259C93.2539 26.6522 92.9852 27.16 92.4478 27.5493C91.9103 27.9344 91.2163 28.127 90.3657 28.127C89.7902 28.127 89.2782 28.0254 88.8296 27.8223C88.3853 27.6149 88.0361 27.3335 87.7822 26.978C87.5283 26.6183 87.4014 26.2311 87.4014 25.8164H89.1406C89.1576 26.1423 89.2782 26.3919 89.5024 26.5654C89.7267 26.7389 90.0272 26.8257 90.4038 26.8257C90.755 26.8257 91.0195 26.7601 91.1973 26.6289C91.3792 26.4935 91.4702 26.3179 91.4702 26.1021ZM98.1606 26.1021C98.1606 25.8778 98.0485 25.7021 97.8242 25.5752C97.6042 25.444 97.2487 25.3276 96.7578 25.2261C95.1243 24.8833 94.3076 24.1893 94.3076 23.144C94.3076 22.5347 94.5594 22.0269 95.063 21.6206C95.5708 21.2101 96.2331 21.0049 97.0498 21.0049C97.9215 21.0049 98.6177 21.2101 99.1382 21.6206C99.6629 22.0311 99.9253 22.5643 99.9253 23.2202H98.0908C98.0908 22.9578 98.0062 22.742 97.8369 22.5728C97.6676 22.3993 97.4032 22.3125 97.0435 22.3125C96.7345 22.3125 96.4954 22.3823 96.3262 22.522C96.1569 22.6616 96.0723 22.8394 96.0723 23.0552C96.0723 23.2583 96.1675 23.4233 96.3579 23.5503C96.5526 23.673 96.8784 23.7809 97.3354 23.874C97.7925 23.9629 98.1776 24.0645 98.4907 24.1787C99.4598 24.5342 99.9443 25.1499 99.9443 26.0259C99.9443 26.6522 99.6756 27.16 99.1382 27.5493C98.6007 27.9344 97.9067 28.127 97.0562 28.127C96.4806 28.127 95.9686 28.0254 95.52 27.8223C95.0757 27.6149 94.7266 27.3335 94.4727 26.978C94.2188 26.6183 94.0918 26.2311 94.0918 25.8164H95.8311C95.848 26.1423 95.9686 26.3919 96.1929 26.5654C96.4172 26.7389 96.7176 26.8257 97.0942 26.8257C97.4455 26.8257 97.71 26.7601 97.8877 26.6289C98.0697 26.4935 98.1606 26.3179 98.1606 26.1021Z" fill="#AAAAAA"/>
<path d="M116.081 24.9214C116.009 25.9159 115.64 26.6987 114.976 27.27C114.316 27.8413 113.444 28.127 112.361 28.127C111.176 28.127 110.243 27.7292 109.562 26.9336C108.884 26.1338 108.546 25.0378 108.546 23.6455V23.0806C108.546 22.1919 108.702 21.409 109.016 20.7319C109.329 20.0549 109.775 19.5365 110.355 19.1768C110.939 18.8128 111.616 18.6309 112.386 18.6309C113.453 18.6309 114.312 18.9165 114.963 19.4878C115.615 20.0591 115.992 20.861 116.093 21.8936H114.189C114.142 21.2969 113.975 20.8652 113.688 20.5986C113.404 20.3278 112.97 20.1924 112.386 20.1924C111.751 20.1924 111.275 20.4209 110.958 20.8779C110.645 21.3307 110.484 22.0353 110.476 22.9917V23.6899C110.476 24.6886 110.626 25.4186 110.926 25.8799C111.231 26.3411 111.709 26.5718 112.361 26.5718C112.949 26.5718 113.387 26.4385 113.675 26.1719C113.967 25.901 114.134 25.4842 114.176 24.9214H116.081ZM116.925 24.5024C116.925 23.8211 117.056 23.2139 117.318 22.6807C117.581 22.1475 117.957 21.7349 118.448 21.4429C118.943 21.1509 119.517 21.0049 120.168 21.0049C121.095 21.0049 121.851 21.2884 122.435 21.8555C123.023 22.4225 123.351 23.1927 123.418 24.166L123.431 24.6357C123.431 25.6895 123.137 26.5358 122.549 27.1748C121.961 27.8096 121.171 28.127 120.181 28.127C119.191 28.127 118.4 27.8096 117.807 27.1748C117.219 26.54 116.925 25.6768 116.925 24.585V24.5024ZM118.759 24.6357C118.759 25.2874 118.882 25.7868 119.127 26.1338C119.373 26.4766 119.724 26.6479 120.181 26.6479C120.625 26.6479 120.972 26.4787 121.222 26.1401C121.472 25.7974 121.597 25.2515 121.597 24.5024C121.597 23.8634 121.472 23.3683 121.222 23.0171C120.972 22.6659 120.621 22.4902 120.168 22.4902C119.72 22.4902 119.373 22.6659 119.127 23.0171C118.882 23.3641 118.759 23.9036 118.759 24.6357ZM130.744 24.6294C130.744 25.6873 130.502 26.5358 130.02 27.1748C129.542 27.8096 128.894 28.127 128.078 28.127C127.384 28.127 126.823 27.8857 126.396 27.4033V30.6406H124.561V21.1318H126.262L126.326 21.8047C126.77 21.2715 127.35 21.0049 128.065 21.0049C128.911 21.0049 129.569 21.318 130.039 21.9443C130.509 22.5706 130.744 23.4339 130.744 24.5342V24.6294ZM128.909 24.4961C128.909 23.8571 128.795 23.3641 128.566 23.0171C128.342 22.6701 128.014 22.4966 127.583 22.4966C127.007 22.4966 126.611 22.7166 126.396 23.1567V25.9688C126.62 26.4215 127.02 26.6479 127.595 26.6479C128.471 26.6479 128.909 25.9307 128.909 24.4961ZM134.375 25.4038L135.644 21.1318H137.612L134.851 29.0664L134.698 29.4282C134.288 30.3254 133.611 30.7739 132.667 30.7739C132.4 30.7739 132.13 30.7337 131.854 30.6533V29.2632L132.134 29.2695C132.481 29.2695 132.739 29.2166 132.908 29.1108C133.082 29.005 133.217 28.8294 133.314 28.584L133.53 28.019L131.125 21.1318H133.099L134.375 25.4038ZM142.195 22.8521C141.945 22.8182 141.725 22.8013 141.535 22.8013C140.841 22.8013 140.386 23.0361 140.17 23.5059V28H138.335V21.1318H140.068L140.119 21.9507C140.487 21.3201 140.997 21.0049 141.649 21.0049C141.852 21.0049 142.042 21.0324 142.22 21.0874L142.195 22.8521ZM145.02 28H143.179V21.1318H145.02V28ZM143.071 19.3545C143.071 19.0794 143.162 18.853 143.344 18.6753C143.53 18.4976 143.782 18.4087 144.099 18.4087C144.412 18.4087 144.662 18.4976 144.848 18.6753C145.034 18.853 145.127 19.0794 145.127 19.3545C145.127 19.6338 145.032 19.8623 144.842 20.04C144.656 20.2178 144.408 20.3066 144.099 20.3066C143.79 20.3066 143.541 20.2178 143.35 20.04C143.164 19.8623 143.071 19.6338 143.071 19.3545ZM146.27 24.5151C146.27 23.4614 146.52 22.613 147.019 21.9697C147.523 21.3265 148.2 21.0049 149.05 21.0049C149.804 21.0049 150.39 21.263 150.809 21.7793L150.885 21.1318H152.548V27.7715C152.548 28.3724 152.41 28.895 152.135 29.3394C151.864 29.7837 151.481 30.1222 150.986 30.355C150.491 30.5877 149.911 30.7041 149.247 30.7041C148.743 30.7041 148.253 30.6025 147.774 30.3994C147.296 30.2005 146.934 29.9424 146.689 29.625L147.501 28.5078C147.958 29.0199 148.513 29.2759 149.165 29.2759C149.651 29.2759 150.03 29.1447 150.301 28.8823C150.572 28.6242 150.707 28.256 150.707 27.7778V27.4097C150.284 27.8879 149.727 28.127 149.038 28.127C148.212 28.127 147.544 27.8053 147.032 27.1621C146.524 26.5146 146.27 25.6577 146.27 24.5913V24.5151ZM148.104 24.6484C148.104 25.2705 148.229 25.7593 148.479 26.1147C148.729 26.466 149.071 26.6416 149.507 26.6416C150.066 26.6416 150.466 26.4321 150.707 26.0132V23.125C150.462 22.7061 150.066 22.4966 149.52 22.4966C149.08 22.4966 148.733 22.6764 148.479 23.0361C148.229 23.3958 148.104 23.9333 148.104 24.6484ZM155.753 21.8809C156.24 21.2969 156.852 21.0049 157.588 21.0049C159.077 21.0049 159.833 21.8703 159.854 23.6011V28H158.02V23.6519C158.02 23.2583 157.935 22.9684 157.766 22.7822C157.596 22.5918 157.315 22.4966 156.921 22.4966C156.384 22.4966 155.995 22.7039 155.753 23.1187V28H153.919V18.25H155.753V21.8809ZM163.434 19.4434V21.1318H164.608V22.4775H163.434V25.9053C163.434 26.1592 163.483 26.3411 163.58 26.4512C163.677 26.5612 163.864 26.6162 164.139 26.6162C164.342 26.6162 164.522 26.6014 164.678 26.5718V27.9619C164.319 28.0719 163.948 28.127 163.567 28.127C162.281 28.127 161.625 27.4774 161.6 26.1782V22.4775H160.597V21.1318H161.6V19.4434H163.434Z" fill="#AAAAAA"/>
<path d="M32.0806 39.9214C32.0086 40.9159 31.6405 41.6987 30.9761 42.27C30.3159 42.8413 29.4442 43.127 28.3608 43.127C27.1759 43.127 26.2428 42.7292 25.5615 41.9336C24.8844 41.1338 24.5459 40.0378 24.5459 38.6455V38.0806C24.5459 37.1919 24.7025 36.409 25.0156 35.7319C25.3288 35.0549 25.7752 34.5365 26.355 34.1768C26.939 33.8128 27.616 33.6309 28.3862 33.6309C29.4526 33.6309 30.3117 33.9165 30.9634 34.4878C31.6151 35.0591 31.9917 35.861 32.0933 36.8936H30.189C30.1424 36.2969 29.9753 35.8652 29.6875 35.5986C29.404 35.3278 28.9702 35.1924 28.3862 35.1924C27.7515 35.1924 27.2754 35.4209 26.958 35.8779C26.6449 36.3307 26.484 37.0353 26.4756 37.9917V38.6899C26.4756 39.6886 26.6258 40.4186 26.9263 40.8799C27.231 41.3411 27.7091 41.5718 28.3608 41.5718C28.9491 41.5718 29.387 41.4385 29.6748 41.1719C29.9668 40.901 30.134 40.4842 30.1763 39.9214H32.0806ZM32.9248 39.5024C32.9248 38.8211 33.056 38.2139 33.3184 37.6807C33.5807 37.1475 33.9574 36.7349 34.4482 36.4429C34.9434 36.1509 35.5168 36.0049 36.1685 36.0049C37.0952 36.0049 37.8506 36.2884 38.4346 36.8555C39.0228 37.4225 39.3507 38.1927 39.4185 39.166L39.4312 39.6357C39.4312 40.6895 39.137 41.5358 38.5488 42.1748C37.9606 42.8096 37.1714 43.127 36.1812 43.127C35.1909 43.127 34.3996 42.8096 33.8071 42.1748C33.2189 41.54 32.9248 40.6768 32.9248 39.585V39.5024ZM34.7593 39.6357C34.7593 40.2874 34.882 40.7868 35.1274 41.1338C35.3729 41.4766 35.7241 41.6479 36.1812 41.6479C36.6255 41.6479 36.9725 41.4787 37.2222 41.1401C37.4718 40.7974 37.5967 40.2515 37.5967 39.5024C37.5967 38.8634 37.4718 38.3683 37.2222 38.0171C36.9725 37.6659 36.6213 37.4902 36.1685 37.4902C35.7199 37.4902 35.3729 37.6659 35.1274 38.0171C34.882 38.3641 34.7593 38.9036 34.7593 39.6357ZM42.2495 36.1318L42.3066 36.9253C42.7975 36.3117 43.4556 36.0049 44.2808 36.0049C45.0086 36.0049 45.5503 36.2186 45.9058 36.646C46.2612 37.0734 46.4432 37.7124 46.4517 38.563V43H44.6172V38.6074C44.6172 38.2181 44.5326 37.9367 44.3633 37.7632C44.194 37.5854 43.9126 37.4966 43.519 37.4966C43.0028 37.4966 42.6156 37.7166 42.3574 38.1567V43H40.5229V36.1318H42.2495ZM50.0444 34.4434V36.1318H51.2188V37.4775H50.0444V40.9053C50.0444 41.1592 50.0931 41.3411 50.1904 41.4512C50.2878 41.5612 50.474 41.6162 50.749 41.6162C50.9521 41.6162 51.132 41.6014 51.2886 41.5718V42.9619C50.9289 43.0719 50.5586 43.127 50.1777 43.127C48.8913 43.127 48.2354 42.4774 48.21 41.1782V37.4775H47.207V36.1318H48.21V34.4434H50.0444ZM56.2207 43C56.1361 42.835 56.0747 42.6297 56.0366 42.3843C55.5923 42.8794 55.0146 43.127 54.3037 43.127C53.6309 43.127 53.0723 42.9323 52.6279 42.543C52.1878 42.1536 51.9678 41.6628 51.9678 41.0703C51.9678 40.3424 52.2365 39.7839 52.7739 39.3945C53.3156 39.0052 54.0964 38.8084 55.1162 38.8042H55.9604V38.4106C55.9604 38.0933 55.8779 37.8394 55.7129 37.6489C55.5521 37.4585 55.2961 37.3633 54.9448 37.3633C54.6359 37.3633 54.3926 37.4373 54.2148 37.5854C54.0413 37.7336 53.9546 37.9367 53.9546 38.1948H52.1201C52.1201 37.797 52.2428 37.4289 52.4883 37.0903C52.7337 36.7518 53.0807 36.4873 53.5293 36.2969C53.9779 36.1022 54.4814 36.0049 55.04 36.0049C55.8864 36.0049 56.5571 36.2186 57.0522 36.646C57.5516 37.0692 57.8013 37.6659 57.8013 38.436V41.4131C57.8055 42.0648 57.8965 42.5578 58.0742 42.8921V43H56.2207ZM54.7036 41.7241C54.9744 41.7241 55.2241 41.6649 55.4526 41.5464C55.6812 41.4237 55.8504 41.2607 55.9604 41.0576V39.877H55.2749C54.3566 39.877 53.8678 40.1943 53.8086 40.8291L53.8022 40.937C53.8022 41.1655 53.8826 41.3538 54.0435 41.502C54.2043 41.6501 54.4243 41.7241 54.7036 41.7241ZM62.0669 41.6479C62.4054 41.6479 62.6805 41.5549 62.8921 41.3687C63.1037 41.1825 63.2137 40.9349 63.2222 40.626H64.9424C64.9382 41.0915 64.8112 41.5189 64.5615 41.9082C64.3118 42.2933 63.9691 42.5938 63.5332 42.8096C63.1016 43.0212 62.6234 43.127 62.0986 43.127C61.1169 43.127 60.3424 42.8159 59.7754 42.1938C59.2083 41.5675 58.9248 40.7043 58.9248 39.604V39.4834C58.9248 38.4255 59.2062 37.5812 59.769 36.9507C60.3319 36.3201 61.1042 36.0049 62.0859 36.0049C62.945 36.0049 63.6326 36.2503 64.1489 36.7412C64.6694 37.2279 64.9339 37.8774 64.9424 38.6899H63.2222C63.2137 38.3345 63.1037 38.0467 62.8921 37.8267C62.6805 37.6024 62.4012 37.4902 62.0542 37.4902C61.6268 37.4902 61.3031 37.6468 61.083 37.96C60.8672 38.2689 60.7593 38.7725 60.7593 39.4707V39.6611C60.7593 40.3678 60.8672 40.8757 61.083 41.1846C61.2988 41.4935 61.6268 41.6479 62.0669 41.6479ZM68.186 34.4434V36.1318H69.3604V37.4775H68.186V40.9053C68.186 41.1592 68.2347 41.3411 68.332 41.4512C68.4294 41.5612 68.6156 41.6162 68.8906 41.6162C69.0938 41.6162 69.2736 41.6014 69.4302 41.5718V42.9619C69.0705 43.0719 68.7002 43.127 68.3193 43.127C67.0329 43.127 66.377 42.4774 66.3516 41.1782V37.4775H65.3486V36.1318H66.3516V34.4434H68.186ZM77.7329 42.3018C77.2801 42.8519 76.6538 43.127 75.854 43.127C75.1177 43.127 74.5549 42.9154 74.1655 42.4922C73.7804 42.069 73.5837 41.4491 73.5752 40.6323V36.1318H75.4097V40.5688C75.4097 41.284 75.7355 41.6416 76.3872 41.6416C77.0093 41.6416 77.4367 41.4258 77.6694 40.9941V36.1318H79.5103V43H77.7837L77.7329 42.3018ZM84.6138 41.1021C84.6138 40.8778 84.5016 40.7021 84.2773 40.5752C84.0573 40.444 83.7018 40.3276 83.2109 40.2261C81.5775 39.8833 80.7607 39.1893 80.7607 38.144C80.7607 37.5347 81.0125 37.0269 81.5161 36.6206C82.0239 36.2101 82.6862 36.0049 83.5029 36.0049C84.3747 36.0049 85.0708 36.2101 85.5913 36.6206C86.116 37.0311 86.3784 37.5643 86.3784 38.2202H84.5439C84.5439 37.9578 84.4593 37.742 84.29 37.5728C84.1208 37.3993 83.8563 37.3125 83.4966 37.3125C83.1877 37.3125 82.9486 37.3823 82.7793 37.522C82.61 37.6616 82.5254 37.8394 82.5254 38.0552C82.5254 38.2583 82.6206 38.4233 82.811 38.5503C83.0057 38.673 83.3315 38.7809 83.7886 38.874C84.2456 38.9629 84.6307 39.0645 84.9438 39.1787C85.9129 39.5342 86.3975 40.1499 86.3975 41.0259C86.3975 41.6522 86.1287 42.16 85.5913 42.5493C85.0539 42.9344 84.3599 43.127 83.5093 43.127C82.9338 43.127 82.4217 43.0254 81.9731 42.8223C81.5288 42.6149 81.1797 42.3335 80.9258 41.978C80.6719 41.6183 80.5449 41.2311 80.5449 40.8164H82.2842C82.3011 41.1423 82.4217 41.3919 82.646 41.5654C82.8703 41.7389 83.1707 41.8257 83.5474 41.8257C83.8986 41.8257 84.1631 41.7601 84.3408 41.6289C84.5228 41.4935 84.6138 41.3179 84.6138 41.1021Z" fill="#AAAAAA"/>
<path d="M103.081 39.9214C103.009 40.9159 102.64 41.6987 101.976 42.27C101.316 42.8413 100.444 43.127 99.3608 43.127C98.1759 43.127 97.2428 42.7292 96.5615 41.9336C95.8844 41.1338 95.5459 40.0378 95.5459 38.6455V38.0806C95.5459 37.1919 95.7025 36.409 96.0156 35.7319C96.3288 35.0549 96.7752 34.5365 97.355 34.1768C97.939 33.8128 98.616 33.6309 99.3862 33.6309C100.453 33.6309 101.312 33.9165 101.963 34.4878C102.615 35.0591 102.992 35.861 103.093 36.8936H101.189C101.142 36.2969 100.975 35.8652 100.688 35.5986C100.404 35.3278 99.9702 35.1924 99.3862 35.1924C98.7515 35.1924 98.2754 35.4209 97.958 35.8779C97.6449 36.3307 97.484 37.0353 97.4756 37.9917V38.6899C97.4756 39.6886 97.6258 40.4186 97.9263 40.8799C98.231 41.3411 98.7091 41.5718 99.3608 41.5718C99.9491 41.5718 100.387 41.4385 100.675 41.1719C100.967 40.901 101.134 40.4842 101.176 39.9214H103.081ZM108.07 37.8521C107.82 37.8182 107.6 37.8013 107.41 37.8013C106.716 37.8013 106.261 38.0361 106.045 38.5059V43H104.21V36.1318H105.943L105.994 36.9507C106.362 36.3201 106.872 36.0049 107.524 36.0049C107.727 36.0049 107.917 36.0324 108.095 36.0874L108.07 37.8521ZM111.993 43.127C110.986 43.127 110.165 42.818 109.53 42.2002C108.899 41.5824 108.584 40.7593 108.584 39.731V39.5532C108.584 38.8634 108.717 38.2477 108.984 37.7061C109.25 37.1602 109.627 36.7412 110.114 36.4492C110.605 36.153 111.163 36.0049 111.79 36.0049C112.729 36.0049 113.467 36.3011 114.005 36.8936C114.547 37.486 114.817 38.326 114.817 39.4136V40.1626H110.444C110.503 40.6112 110.681 40.9709 110.977 41.2417C111.278 41.5125 111.656 41.6479 112.113 41.6479C112.82 41.6479 113.372 41.3919 113.77 40.8799L114.671 41.8892C114.396 42.2785 114.024 42.5832 113.554 42.8032C113.084 43.019 112.564 43.127 111.993 43.127ZM111.783 37.4902C111.419 37.4902 111.123 37.613 110.895 37.8584C110.67 38.1038 110.526 38.4551 110.463 38.9121H113.015V38.7661C113.006 38.3599 112.896 38.0467 112.685 37.8267C112.473 37.6024 112.173 37.4902 111.783 37.4902ZM119.845 43C119.76 42.835 119.699 42.6297 119.661 42.3843C119.216 42.8794 118.639 43.127 117.928 43.127C117.255 43.127 116.696 42.9323 116.252 42.543C115.812 42.1536 115.592 41.6628 115.592 41.0703C115.592 40.3424 115.861 39.7839 116.398 39.3945C116.94 39.0052 117.72 38.8084 118.74 38.8042H119.584V38.4106C119.584 38.0933 119.502 37.8394 119.337 37.6489C119.176 37.4585 118.92 37.3633 118.569 37.3633C118.26 37.3633 118.017 37.4373 117.839 37.5854C117.665 37.7336 117.579 37.9367 117.579 38.1948H115.744C115.744 37.797 115.867 37.4289 116.112 37.0903C116.358 36.7518 116.705 36.4873 117.153 36.2969C117.602 36.1022 118.105 36.0049 118.664 36.0049C119.51 36.0049 120.181 36.2186 120.676 36.646C121.176 37.0692 121.425 37.6659 121.425 38.436V41.4131C121.43 42.0648 121.521 42.5578 121.698 42.8921V43H119.845ZM118.328 41.7241C118.598 41.7241 118.848 41.6649 119.077 41.5464C119.305 41.4237 119.474 41.2607 119.584 41.0576V39.877H118.899C117.981 39.877 117.492 40.1943 117.433 40.8291L117.426 40.937C117.426 41.1655 117.507 41.3538 117.667 41.502C117.828 41.6501 118.048 41.7241 118.328 41.7241ZM125.031 34.4434V36.1318H126.205V37.4775H125.031V40.9053C125.031 41.1592 125.079 41.3411 125.177 41.4512C125.274 41.5612 125.46 41.6162 125.735 41.6162C125.938 41.6162 126.118 41.6014 126.275 41.5718V42.9619C125.915 43.0719 125.545 43.127 125.164 43.127C123.878 43.127 123.222 42.4774 123.196 41.1782V37.4775H122.193V36.1318H123.196V34.4434H125.031ZM126.751 39.5024C126.751 38.8211 126.882 38.2139 127.145 37.6807C127.407 37.1475 127.784 36.7349 128.274 36.4429C128.77 36.1509 129.343 36.0049 129.995 36.0049C130.921 36.0049 131.677 36.2884 132.261 36.8555C132.849 37.4225 133.177 38.1927 133.245 39.166L133.257 39.6357C133.257 40.6895 132.963 41.5358 132.375 42.1748C131.787 42.8096 130.998 43.127 130.007 43.127C129.017 43.127 128.226 42.8096 127.633 42.1748C127.045 41.54 126.751 40.6768 126.751 39.585V39.5024ZM128.585 39.6357C128.585 40.2874 128.708 40.7868 128.954 41.1338C129.199 41.4766 129.55 41.6479 130.007 41.6479C130.452 41.6479 130.799 41.4787 131.048 41.1401C131.298 40.7974 131.423 40.2515 131.423 39.5024C131.423 38.8634 131.298 38.3683 131.048 38.0171C130.799 37.6659 130.447 37.4902 129.995 37.4902C129.546 37.4902 129.199 37.6659 128.954 38.0171C128.708 38.3641 128.585 38.9036 128.585 39.6357ZM138.247 37.8521C137.997 37.8182 137.777 37.8013 137.586 37.8013C136.892 37.8013 136.438 38.0361 136.222 38.5059V43H134.387V36.1318H136.12L136.171 36.9507C136.539 36.3201 137.049 36.0049 137.701 36.0049C137.904 36.0049 138.094 36.0324 138.272 36.0874L138.247 37.8521ZM142.855 41.1021C142.855 40.8778 142.743 40.7021 142.519 40.5752C142.299 40.444 141.943 40.3276 141.452 40.2261C139.819 39.8833 139.002 39.1893 139.002 38.144C139.002 37.5347 139.254 37.0269 139.757 36.6206C140.265 36.2101 140.927 36.0049 141.744 36.0049C142.616 36.0049 143.312 36.2101 143.833 36.6206C144.357 37.0311 144.62 37.5643 144.62 38.2202H142.785C142.785 37.9578 142.701 37.742 142.531 37.5728C142.362 37.3993 142.097 37.3125 141.738 37.3125C141.429 37.3125 141.19 37.3823 141.021 37.522C140.851 37.6616 140.767 37.8394 140.767 38.0552C140.767 38.2583 140.862 38.4233 141.052 38.5503C141.247 38.673 141.573 38.7809 142.03 38.874C142.487 38.9629 142.872 39.0645 143.185 39.1787C144.154 39.5342 144.639 40.1499 144.639 41.0259C144.639 41.6522 144.37 42.16 143.833 42.5493C143.295 42.9344 142.601 43.127 141.75 43.127C141.175 43.127 140.663 43.0254 140.214 42.8223C139.77 42.6149 139.421 42.3335 139.167 41.978C138.913 41.6183 138.786 41.2311 138.786 40.8164H140.525C140.542 41.1423 140.663 41.3919 140.887 41.5654C141.111 41.7389 141.412 41.8257 141.789 41.8257C142.14 41.8257 142.404 41.7601 142.582 41.6289C142.764 41.4935 142.855 41.3179 142.855 41.1021Z" fill="#AAAAAA"/>
<path d="M30.043 56.0957H26.7041L26.0693 58H24.0444L27.4849 48.7578H29.2495L32.709 58H30.6841L30.043 56.0957ZM27.2183 54.5532H29.5288L28.3672 51.0938L27.2183 54.5532ZM33.166 54.5151C33.166 53.4445 33.4051 52.5918 33.8833 51.957C34.3657 51.3223 35.0238 51.0049 35.8574 51.0049C36.526 51.0049 37.0783 51.2546 37.5142 51.7539V48.25H39.355V58H37.6982L37.6094 57.27C37.1523 57.8413 36.5641 58.127 35.8447 58.127C35.0365 58.127 34.3869 57.8096 33.896 57.1748C33.4093 56.5358 33.166 55.6493 33.166 54.5151ZM35.0005 54.6484C35.0005 55.2917 35.1126 55.7847 35.3369 56.1274C35.5612 56.4702 35.887 56.6416 36.3145 56.6416C36.8815 56.6416 37.2814 56.4025 37.5142 55.9243V53.2139C37.2856 52.7357 36.89 52.4966 36.3271 52.4966C35.4427 52.4966 35.0005 53.2139 35.0005 54.6484ZM43.3477 55.7593L44.6235 51.1318H46.5405L44.2236 58H42.4717L40.1548 51.1318H42.0718L43.3477 55.7593ZM50.4253 58.127C49.4181 58.127 48.5972 57.818 47.9624 57.2002C47.3319 56.5824 47.0166 55.7593 47.0166 54.731V54.5532C47.0166 53.8634 47.1499 53.2477 47.4165 52.7061C47.6831 52.1602 48.0597 51.7412 48.5464 51.4492C49.0373 51.153 49.5959 51.0049 50.2222 51.0049C51.1616 51.0049 51.9001 51.3011 52.4375 51.8936C52.9792 52.486 53.25 53.326 53.25 54.4136V55.1626H48.8765C48.9357 55.6112 49.1134 55.9709 49.4097 56.2417C49.7101 56.5125 50.0889 56.6479 50.5459 56.6479C51.2526 56.6479 51.8049 56.3919 52.2026 55.8799L53.104 56.8892C52.8289 57.2785 52.4565 57.5832 51.9868 57.8032C51.5171 58.019 50.9966 58.127 50.4253 58.127ZM50.2158 52.4902C49.8519 52.4902 49.5557 52.613 49.3271 52.8584C49.1029 53.1038 48.959 53.4551 48.8955 53.9121H51.4473V53.7661C51.4388 53.3599 51.3288 53.0467 51.1172 52.8267C50.9056 52.6024 50.6051 52.4902 50.2158 52.4902ZM58.1567 52.8521C57.9071 52.8182 57.687 52.8013 57.4966 52.8013C56.8026 52.8013 56.3477 53.0361 56.1318 53.5059V58H54.2974V51.1318H56.0303L56.0811 51.9507C56.4492 51.3201 56.9591 51.0049 57.6108 51.0049C57.814 51.0049 58.0044 51.0324 58.1821 51.0874L58.1567 52.8521ZM61.5591 49.4434V51.1318H62.7334V52.4775H61.5591V55.9053C61.5591 56.1592 61.6077 56.3411 61.7051 56.4512C61.8024 56.5612 61.9886 56.6162 62.2637 56.6162C62.4668 56.6162 62.6466 56.6014 62.8032 56.5718V57.9619C62.4435 58.0719 62.0732 58.127 61.6924 58.127C60.4059 58.127 59.75 57.4774 59.7246 56.1782V52.4775H58.7217V51.1318H59.7246V49.4434H61.5591ZM65.6914 58H63.8506V51.1318H65.6914V58ZM63.7427 49.3545C63.7427 49.0794 63.8337 48.853 64.0156 48.6753C64.2018 48.4976 64.4536 48.4087 64.771 48.4087C65.0841 48.4087 65.3338 48.4976 65.52 48.6753C65.7062 48.853 65.7993 49.0794 65.7993 49.3545C65.7993 49.6338 65.7041 49.8623 65.5137 50.04C65.3275 50.2178 65.0799 50.3066 64.771 50.3066C64.4621 50.3066 64.2124 50.2178 64.022 50.04C63.8358 49.8623 63.7427 49.6338 63.7427 49.3545ZM70.9282 56.1021C70.9282 55.8778 70.8161 55.7021 70.5918 55.5752C70.3717 55.444 70.0163 55.3276 69.5254 55.2261C67.8919 54.8833 67.0752 54.1893 67.0752 53.144C67.0752 52.5347 67.327 52.0269 67.8306 51.6206C68.3384 51.2101 69.0007 51.0049 69.8174 51.0049C70.6891 51.0049 71.3853 51.2101 71.9058 51.6206C72.4305 52.0311 72.6929 52.5643 72.6929 53.2202H70.8584C70.8584 52.9578 70.7738 52.742 70.6045 52.5728C70.4352 52.3993 70.1707 52.3125 69.811 52.3125C69.5021 52.3125 69.263 52.3823 69.0938 52.522C68.9245 52.6616 68.8398 52.8394 68.8398 53.0552C68.8398 53.2583 68.9351 53.4233 69.1255 53.5503C69.3201 53.673 69.646 53.7809 70.103 53.874C70.5601 53.9629 70.9451 54.0645 71.2583 54.1787C72.2274 54.5342 72.7119 55.1499 72.7119 56.0259C72.7119 56.6522 72.4432 57.16 71.9058 57.5493C71.3683 57.9344 70.6743 58.127 69.8237 58.127C69.2482 58.127 68.7362 58.0254 68.2876 57.8223C67.8433 57.6149 67.4941 57.3335 67.2402 56.978C66.9863 56.6183 66.8594 56.2311 66.8594 55.8164H68.5986C68.6156 56.1423 68.7362 56.3919 68.9604 56.5654C69.1847 56.7389 69.4852 56.8257 69.8618 56.8257C70.2131 56.8257 70.4775 56.7601 70.6553 56.6289C70.8372 56.4935 70.9282 56.3179 70.9282 56.1021ZM77.0601 58.127C76.0529 58.127 75.2319 57.818 74.5972 57.2002C73.9666 56.5824 73.6514 55.7593 73.6514 54.731V54.5532C73.6514 53.8634 73.7847 53.2477 74.0513 52.7061C74.3179 52.1602 74.6945 51.7412 75.1812 51.4492C75.672 51.153 76.2306 51.0049 76.8569 51.0049C77.7964 51.0049 78.5348 51.3011 79.0723 51.8936C79.6139 52.486 79.8848 53.326 79.8848 54.4136V55.1626H75.5112C75.5705 55.6112 75.7482 55.9709 76.0444 56.2417C76.3449 56.5125 76.7236 56.6479 77.1807 56.6479C77.8874 56.6479 78.4396 56.3919 78.8374 55.8799L79.7388 56.8892C79.4637 57.2785 79.0913 57.5832 78.6216 57.8032C78.1519 58.019 77.6313 58.127 77.0601 58.127ZM76.8506 52.4902C76.4867 52.4902 76.1904 52.613 75.9619 52.8584C75.7376 53.1038 75.5938 53.4551 75.5303 53.9121H78.082V53.7661C78.0736 53.3599 77.9635 53.0467 77.752 52.8267C77.5404 52.6024 77.2399 52.4902 76.8506 52.4902Z" fill="#AAAAAA"/>
<path d="M87.8252 58V48.7578H90.6689C91.4814 48.7578 92.2072 48.9419 92.8462 49.3101C93.4894 49.674 93.9909 50.1945 94.3506 50.8716C94.7103 51.5444 94.8901 52.3104 94.8901 53.1694V53.5947C94.8901 54.4538 94.7124 55.2176 94.3569 55.8862C94.0057 56.5549 93.5085 57.0732 92.8652 57.4414C92.222 57.8096 91.4963 57.9958 90.688 58H87.8252ZM89.7295 50.3003V56.4702H90.6499C91.3947 56.4702 91.9639 56.2269 92.3574 55.7402C92.751 55.2536 92.952 54.5575 92.9604 53.6519V53.1631C92.9604 52.2236 92.7658 51.5127 92.3765 51.0303C91.9871 50.5436 91.418 50.3003 90.6689 50.3003H89.7295ZM99.3208 58.127C98.3136 58.127 97.4927 57.818 96.8579 57.2002C96.2274 56.5824 95.9121 55.7593 95.9121 54.731V54.5532C95.9121 53.8634 96.0454 53.2477 96.312 52.7061C96.5786 52.1602 96.9552 51.7412 97.4419 51.4492C97.9328 51.153 98.4914 51.0049 99.1177 51.0049C100.057 51.0049 100.796 51.3011 101.333 51.8936C101.875 52.486 102.146 53.326 102.146 54.4136V55.1626H97.772C97.8312 55.6112 98.009 55.9709 98.3052 56.2417C98.6056 56.5125 98.9844 56.6479 99.4414 56.6479C100.148 56.6479 100.7 56.3919 101.098 55.8799L102 56.8892C101.724 57.2785 101.352 57.5832 100.882 57.8032C100.413 58.019 99.8921 58.127 99.3208 58.127ZM99.1113 52.4902C98.7474 52.4902 98.4512 52.613 98.2227 52.8584C97.9984 53.1038 97.8545 53.4551 97.791 53.9121H100.343V53.7661C100.334 53.3599 100.224 53.0467 100.013 52.8267C99.8011 52.6024 99.5007 52.4902 99.1113 52.4902ZM105.675 55.7593L106.951 51.1318H108.868L106.551 58H104.799L102.482 51.1318H104.399L105.675 55.7593ZM112.752 58.127C111.745 58.127 110.924 57.818 110.29 57.2002C109.659 56.5824 109.344 55.7593 109.344 54.731V54.5532C109.344 53.8634 109.477 53.2477 109.744 52.7061C110.01 52.1602 110.387 51.7412 110.874 51.4492C111.364 51.153 111.923 51.0049 112.549 51.0049C113.489 51.0049 114.227 51.3011 114.765 51.8936C115.306 52.486 115.577 53.326 115.577 54.4136V55.1626H111.204C111.263 55.6112 111.441 55.9709 111.737 56.2417C112.037 56.5125 112.416 56.6479 112.873 56.6479C113.58 56.6479 114.132 56.3919 114.53 55.8799L115.431 56.8892C115.156 57.2785 114.784 57.5832 114.314 57.8032C113.844 58.019 113.324 58.127 112.752 58.127ZM112.543 52.4902C112.179 52.4902 111.883 52.613 111.654 52.8584C111.43 53.1038 111.286 53.4551 111.223 53.9121H113.774V53.7661C113.766 53.3599 113.656 53.0467 113.444 52.8267C113.233 52.6024 112.932 52.4902 112.543 52.4902ZM118.561 58H116.72V48.25H118.561V58ZM119.792 54.5024C119.792 53.8211 119.923 53.2139 120.186 52.6807C120.448 52.1475 120.825 51.7349 121.315 51.4429C121.811 51.1509 122.384 51.0049 123.036 51.0049C123.962 51.0049 124.718 51.2884 125.302 51.8555C125.89 52.4225 126.218 53.1927 126.286 54.166L126.298 54.6357C126.298 55.6895 126.004 56.5358 125.416 57.1748C124.828 57.8096 124.039 58.127 123.048 58.127C122.058 58.127 121.267 57.8096 120.674 57.1748C120.086 56.54 119.792 55.6768 119.792 54.585V54.5024ZM121.626 54.6357C121.626 55.2874 121.749 55.7868 121.995 56.1338C122.24 56.4766 122.591 56.6479 123.048 56.6479C123.493 56.6479 123.84 56.4787 124.089 56.1401C124.339 55.7974 124.464 55.2515 124.464 54.5024C124.464 53.8634 124.339 53.3683 124.089 53.0171C123.84 52.6659 123.488 52.4902 123.036 52.4902C122.587 52.4902 122.24 52.6659 121.995 53.0171C121.749 53.3641 121.626 53.9036 121.626 54.6357ZM133.611 54.6294C133.611 55.6873 133.37 56.5358 132.887 57.1748C132.409 57.8096 131.762 58.127 130.945 58.127C130.251 58.127 129.69 57.8857 129.263 57.4033V60.6406H127.428V51.1318H129.129L129.193 51.8047C129.637 51.2715 130.217 51.0049 130.932 51.0049C131.778 51.0049 132.437 51.318 132.906 51.9443C133.376 52.5706 133.611 53.4339 133.611 54.5342V54.6294ZM131.776 54.4961C131.776 53.8571 131.662 53.3641 131.434 53.0171C131.209 52.6701 130.881 52.4966 130.45 52.4966C129.874 52.4966 129.479 52.7166 129.263 53.1567V55.9688C129.487 56.4215 129.887 56.6479 130.462 56.6479C131.338 56.6479 131.776 55.9307 131.776 54.4961ZM137.915 58.127C136.907 58.127 136.086 57.818 135.452 57.2002C134.821 56.5824 134.506 55.7593 134.506 54.731V54.5532C134.506 53.8634 134.639 53.2477 134.906 52.7061C135.172 52.1602 135.549 51.7412 136.036 51.4492C136.527 51.153 137.085 51.0049 137.711 51.0049C138.651 51.0049 139.389 51.3011 139.927 51.8936C140.468 52.486 140.739 53.326 140.739 54.4136V55.1626H136.366C136.425 55.6112 136.603 55.9709 136.899 56.2417C137.199 56.5125 137.578 56.6479 138.035 56.6479C138.742 56.6479 139.294 56.3919 139.692 55.8799L140.593 56.8892C140.318 57.2785 139.946 57.5832 139.476 57.8032C139.006 58.019 138.486 58.127 137.915 58.127ZM137.705 52.4902C137.341 52.4902 137.045 52.613 136.816 52.8584C136.592 53.1038 136.448 53.4551 136.385 53.9121H138.937V53.7661C138.928 53.3599 138.818 53.0467 138.606 52.8267C138.395 52.6024 138.094 52.4902 137.705 52.4902ZM145.646 52.8521C145.396 52.8182 145.176 52.8013 144.986 52.8013C144.292 52.8013 143.837 53.0361 143.621 53.5059V58H141.787V51.1318H143.52L143.57 51.9507C143.938 51.3201 144.448 51.0049 145.1 51.0049C145.303 51.0049 145.494 51.0324 145.671 51.0874L145.646 52.8521ZM150.254 56.1021C150.254 55.8778 150.142 55.7021 149.918 55.5752C149.698 55.444 149.342 55.3276 148.852 55.2261C147.218 54.8833 146.401 54.1893 146.401 53.144C146.401 52.5347 146.653 52.0269 147.157 51.6206C147.665 51.2101 148.327 51.0049 149.144 51.0049C150.015 51.0049 150.711 51.2101 151.232 51.6206C151.757 52.0311 152.019 52.5643 152.019 53.2202H150.185C150.185 52.9578 150.1 52.742 149.931 52.5728C149.761 52.3993 149.497 52.3125 149.137 52.3125C148.828 52.3125 148.589 52.3823 148.42 52.522C148.251 52.6616 148.166 52.8394 148.166 53.0552C148.166 53.2583 148.261 53.4233 148.452 53.5503C148.646 53.673 148.972 53.7809 149.429 53.874C149.886 53.9629 150.271 54.0645 150.584 54.1787C151.554 54.5342 152.038 55.1499 152.038 56.0259C152.038 56.6522 151.769 57.16 151.232 57.5493C150.694 57.9344 150 58.127 149.15 58.127C148.574 58.127 148.062 58.0254 147.614 57.8223C147.169 57.6149 146.82 57.3335 146.566 56.978C146.312 56.6183 146.186 56.2311 146.186 55.8164H147.925C147.942 56.1423 148.062 56.3919 148.287 56.5654C148.511 56.7389 148.811 56.8257 149.188 56.8257C149.539 56.8257 149.804 56.7601 149.981 56.6289C150.163 56.4935 150.254 56.3179 150.254 56.1021Z" fill="#AAAAAA"/>
<path d="M31.7822 77.3003H28.9512V85H27.0469V77.3003H24.2539V75.7578H31.7822V77.3003ZM35.3433 85.127C34.3361 85.127 33.5151 84.818 32.8804 84.2002C32.2498 83.5824 31.9346 82.7593 31.9346 81.731V81.5532C31.9346 80.8634 32.0679 80.2477 32.3345 79.7061C32.6011 79.1602 32.9777 78.7412 33.4644 78.4492C33.9552 78.153 34.5138 78.0049 35.1401 78.0049C36.0796 78.0049 36.818 78.3011 37.3555 78.8936C37.8971 79.486 38.168 80.326 38.168 81.4136V82.1626H33.7944C33.8537 82.6112 34.0314 82.9709 34.3276 83.2417C34.6281 83.5125 35.0068 83.6479 35.4639 83.6479C36.1706 83.6479 36.7228 83.3919 37.1206 82.8799L38.022 83.8892C37.7469 84.2785 37.3745 84.5832 36.9048 84.8032C36.4351 85.019 35.9146 85.127 35.3433 85.127ZM35.1338 79.4902C34.7699 79.4902 34.4736 79.613 34.2451 79.8584C34.0208 80.1038 33.877 80.4551 33.8135 80.9121H36.3652V80.7661C36.3568 80.3599 36.2467 80.0467 36.0352 79.8267C35.8236 79.6024 35.5231 79.4902 35.1338 79.4902ZM43.0747 79.8521C42.825 79.8182 42.605 79.8013 42.4146 79.8013C41.7205 79.8013 41.2656 80.0361 41.0498 80.5059V85H39.2153V78.1318H40.9482L40.999 78.9507C41.3672 78.3201 41.8771 78.0049 42.5288 78.0049C42.7319 78.0049 42.9224 78.0324 43.1001 78.0874L43.0747 79.8521ZM45.6836 78.1318L45.7407 78.8999C46.2274 78.3032 46.8854 78.0049 47.7148 78.0049C48.5993 78.0049 49.2065 78.354 49.5366 79.0522C50.019 78.354 50.7067 78.0049 51.5996 78.0049C52.3444 78.0049 52.8988 78.2228 53.2627 78.6587C53.6266 79.0903 53.8086 79.742 53.8086 80.6138V85H51.9678V80.6201C51.9678 80.2308 51.8916 79.9473 51.7393 79.7695C51.5869 79.5876 51.3182 79.4966 50.9331 79.4966C50.383 79.4966 50.0021 79.759 49.7905 80.2837L49.7969 85H47.9624V80.6265C47.9624 80.2287 47.8841 79.9409 47.7275 79.7632C47.571 79.5854 47.3044 79.4966 46.9277 79.4966C46.4072 79.4966 46.0306 79.7124 45.7979 80.144V85H43.9634V78.1318H45.6836ZM58.9438 83.1021C58.9438 82.8778 58.8317 82.7021 58.6074 82.5752C58.3874 82.444 58.0319 82.3276 57.541 82.2261C55.9076 81.8833 55.0908 81.1893 55.0908 80.144C55.0908 79.5347 55.3426 79.0269 55.8462 78.6206C56.354 78.2101 57.0163 78.0049 57.833 78.0049C58.7048 78.0049 59.4009 78.2101 59.9214 78.6206C60.4461 79.0311 60.7085 79.5643 60.7085 80.2202H58.874C58.874 79.9578 58.7894 79.742 58.6201 79.5728C58.4508 79.3993 58.1864 79.3125 57.8267 79.3125C57.5177 79.3125 57.2786 79.3823 57.1094 79.522C56.9401 79.6616 56.8555 79.8394 56.8555 80.0552C56.8555 80.2583 56.9507 80.4233 57.1411 80.5503C57.3358 80.673 57.6616 80.7809 58.1187 80.874C58.5757 80.9629 58.9608 81.0645 59.2739 81.1787C60.243 81.5342 60.7275 82.1499 60.7275 83.0259C60.7275 83.6522 60.4588 84.16 59.9214 84.5493C59.384 84.9344 58.6899 85.127 57.8394 85.127C57.2638 85.127 56.7518 85.0254 56.3032 84.8223C55.8589 84.6149 55.5098 84.3335 55.2559 83.978C55.002 83.6183 54.875 83.2311 54.875 82.8164H56.6143C56.6312 83.1423 56.7518 83.3919 56.9761 83.5654C57.2004 83.7389 57.5008 83.8257 57.8774 83.8257C58.2287 83.8257 58.4932 83.7601 58.6709 83.6289C58.8529 83.4935 58.9438 83.3179 58.9438 83.1021Z" fill="#AAAAAA"/>
<path d="M71.7295 81.7437V85H69.8252V75.7578H73.4307C74.1247 75.7578 74.734 75.8848 75.2588 76.1387C75.7878 76.3926 76.194 76.7544 76.4775 77.2241C76.7611 77.6896 76.9028 78.2207 76.9028 78.8174C76.9028 79.723 76.5918 80.4382 75.9697 80.9629C75.3519 81.4834 74.495 81.7437 73.3989 81.7437H71.7295ZM71.7295 80.2012H73.4307C73.9342 80.2012 74.3172 80.0827 74.5796 79.8457C74.8462 79.6087 74.9795 79.2702 74.9795 78.8301C74.9795 78.3773 74.8462 78.0112 74.5796 77.7319C74.313 77.4526 73.9448 77.3088 73.4751 77.3003H71.7295V80.2012ZM81.9556 79.8521C81.7059 79.8182 81.4858 79.8013 81.2954 79.8013C80.6014 79.8013 80.1465 80.0361 79.9307 80.5059V85H78.0962V78.1318H79.8291L79.8799 78.9507C80.248 78.3201 80.758 78.0049 81.4097 78.0049C81.6128 78.0049 81.8032 78.0324 81.981 78.0874L81.9556 79.8521ZM84.7803 85H82.9395V78.1318H84.7803V85ZM82.8315 76.3545C82.8315 76.0794 82.9225 75.853 83.1045 75.6753C83.2907 75.4976 83.5425 75.4087 83.8599 75.4087C84.173 75.4087 84.4227 75.4976 84.6089 75.6753C84.7951 75.853 84.8882 76.0794 84.8882 76.3545C84.8882 76.6338 84.793 76.8623 84.6025 77.04C84.4163 77.2178 84.1688 77.3066 83.8599 77.3066C83.5509 77.3066 83.3013 77.2178 83.1108 77.04C82.9246 76.8623 82.8315 76.6338 82.8315 76.3545ZM88.8682 82.7593L90.144 78.1318H92.061L89.7441 85H87.9922L85.6753 78.1318H87.5923L88.8682 82.7593ZM96.752 85C96.6673 84.835 96.606 84.6297 96.5679 84.3843C96.1235 84.8794 95.5459 85.127 94.835 85.127C94.1621 85.127 93.6035 84.9323 93.1592 84.543C92.7191 84.1536 92.499 83.6628 92.499 83.0703C92.499 82.3424 92.7677 81.7839 93.3052 81.3945C93.8468 81.0052 94.6276 80.8084 95.6475 80.8042H96.4917V80.4106C96.4917 80.0933 96.4092 79.8394 96.2441 79.6489C96.0833 79.4585 95.8273 79.3633 95.4761 79.3633C95.1672 79.3633 94.9238 79.4373 94.7461 79.5854C94.5726 79.7336 94.4858 79.9367 94.4858 80.1948H92.6514C92.6514 79.797 92.7741 79.4289 93.0195 79.0903C93.265 78.7518 93.612 78.4873 94.0605 78.2969C94.5091 78.1022 95.0127 78.0049 95.5713 78.0049C96.4176 78.0049 97.0884 78.2186 97.5835 78.646C98.0828 79.0692 98.3325 79.6659 98.3325 80.436V83.4131C98.3368 84.0648 98.4277 84.5578 98.6055 84.8921V85H96.752ZM95.2349 83.7241C95.5057 83.7241 95.7554 83.6649 95.9839 83.5464C96.2124 83.4237 96.3817 83.2607 96.4917 83.0576V81.877H95.8062C94.8879 81.877 94.3991 82.1943 94.3398 82.8291L94.3335 82.937C94.3335 83.1655 94.4139 83.3538 94.5747 83.502C94.7355 83.6501 94.9556 83.7241 95.2349 83.7241ZM102.598 83.6479C102.937 83.6479 103.212 83.5549 103.423 83.3687C103.635 83.1825 103.745 82.9349 103.753 82.626H105.474C105.469 83.0915 105.342 83.5189 105.093 83.9082C104.843 84.2933 104.5 84.5938 104.064 84.8096C103.633 85.0212 103.155 85.127 102.63 85.127C101.648 85.127 100.874 84.8159 100.307 84.1938C99.7396 83.5675 99.4561 82.7043 99.4561 81.604V81.4834C99.4561 80.4255 99.7375 79.5812 100.3 78.9507C100.863 78.3201 101.635 78.0049 102.617 78.0049C103.476 78.0049 104.164 78.2503 104.68 78.7412C105.201 79.2279 105.465 79.8774 105.474 80.6899H103.753C103.745 80.3345 103.635 80.0467 103.423 79.8267C103.212 79.6024 102.932 79.4902 102.585 79.4902C102.158 79.4902 101.834 79.6468 101.614 79.96C101.398 80.2689 101.291 80.7725 101.291 81.4707V81.6611C101.291 82.3678 101.398 82.8757 101.614 83.1846C101.83 83.4935 102.158 83.6479 102.598 83.6479ZM109.085 82.4038L110.355 78.1318H112.323L109.562 86.0664L109.409 86.4282C108.999 87.3254 108.322 87.7739 107.378 87.7739C107.111 87.7739 106.84 87.7337 106.565 87.6533V86.2632L106.845 86.2695C107.192 86.2695 107.45 86.2166 107.619 86.1108C107.793 86.005 107.928 85.8294 108.025 85.584L108.241 85.019L105.835 78.1318H107.81L109.085 82.4038Z" fill="#AAAAAA"/>
<path d="M121.729 81.7437V85H119.825V75.7578H123.431C124.125 75.7578 124.734 75.8848 125.259 76.1387C125.788 76.3926 126.194 76.7544 126.478 77.2241C126.761 77.6896 126.903 78.2207 126.903 78.8174C126.903 79.723 126.592 80.4382 125.97 80.9629C125.352 81.4834 124.495 81.7437 123.399 81.7437H121.729ZM121.729 80.2012H123.431C123.934 80.2012 124.317 80.0827 124.58 79.8457C124.846 79.6087 124.979 79.2702 124.979 78.8301C124.979 78.3773 124.846 78.0112 124.58 77.7319C124.313 77.4526 123.945 77.3088 123.475 77.3003H121.729V80.2012ZM127.722 81.5024C127.722 80.8211 127.853 80.2139 128.115 79.6807C128.378 79.1475 128.754 78.7349 129.245 78.4429C129.74 78.1509 130.314 78.0049 130.965 78.0049C131.892 78.0049 132.647 78.2884 133.231 78.8555C133.82 79.4225 134.148 80.1927 134.215 81.166L134.228 81.6357C134.228 82.6895 133.934 83.5358 133.346 84.1748C132.757 84.8096 131.968 85.127 130.978 85.127C129.988 85.127 129.196 84.8096 128.604 84.1748C128.016 83.54 127.722 82.6768 127.722 81.585V81.5024ZM129.556 81.6357C129.556 82.2874 129.679 82.7868 129.924 83.1338C130.17 83.4766 130.521 83.6479 130.978 83.6479C131.422 83.6479 131.769 83.4787 132.019 83.1401C132.269 82.7974 132.394 82.2515 132.394 81.5024C132.394 80.8634 132.269 80.3683 132.019 80.0171C131.769 79.6659 131.418 79.4902 130.965 79.4902C130.517 79.4902 130.17 79.6659 129.924 80.0171C129.679 80.3641 129.556 80.9036 129.556 81.6357ZM137.294 85H135.453V75.25H137.294V85ZM140.747 85H138.906V78.1318H140.747V85ZM138.798 76.3545C138.798 76.0794 138.889 75.853 139.071 75.6753C139.257 75.4976 139.509 75.4087 139.827 75.4087C140.14 75.4087 140.389 75.4976 140.576 75.6753C140.762 75.853 140.855 76.0794 140.855 76.3545C140.855 76.6338 140.76 76.8623 140.569 77.04C140.383 77.2178 140.136 77.3066 139.827 77.3066C139.518 77.3066 139.268 77.2178 139.078 77.04C138.891 76.8623 138.798 76.6338 138.798 76.3545ZM145.121 83.6479C145.459 83.6479 145.734 83.5549 145.946 83.3687C146.157 83.1825 146.267 82.9349 146.276 82.626H147.996C147.992 83.0915 147.865 83.5189 147.615 83.9082C147.366 84.2933 147.023 84.5938 146.587 84.8096C146.155 85.0212 145.677 85.127 145.152 85.127C144.171 85.127 143.396 84.8159 142.829 84.1938C142.262 83.5675 141.979 82.7043 141.979 81.604V81.4834C141.979 80.4255 142.26 79.5812 142.823 78.9507C143.386 78.3201 144.158 78.0049 145.14 78.0049C145.999 78.0049 146.686 78.2503 147.203 78.7412C147.723 79.2279 147.988 79.8774 147.996 80.6899H146.276C146.267 80.3345 146.157 80.0467 145.946 79.8267C145.734 79.6024 145.455 79.4902 145.108 79.4902C144.681 79.4902 144.357 79.6468 144.137 79.96C143.921 80.2689 143.813 80.7725 143.813 81.4707V81.6611C143.813 82.3678 143.921 82.8757 144.137 83.1846C144.353 83.4935 144.681 83.6479 145.121 83.6479ZM151.608 82.4038L152.877 78.1318H154.845L152.084 86.0664L151.932 86.4282C151.521 87.3254 150.844 87.7739 149.9 87.7739C149.634 87.7739 149.363 87.7337 149.088 87.6533V86.2632L149.367 86.2695C149.714 86.2695 149.972 86.2166 150.142 86.1108C150.315 86.005 150.451 85.8294 150.548 85.584L150.764 85.019L148.358 78.1318H150.332L151.608 82.4038ZM158.552 82.5117C158.552 82.0843 158.671 81.6886 158.908 81.3247C159.149 80.9608 159.589 80.5566 160.228 80.1123C159.953 79.7441 159.737 79.3993 159.581 79.0776C159.424 78.7518 159.346 78.4132 159.346 78.062C159.346 77.3426 159.572 76.7586 160.025 76.3101C160.482 75.8573 161.096 75.6309 161.866 75.6309C162.556 75.6309 163.12 75.8361 163.561 76.2466C164.005 76.6571 164.227 77.1691 164.227 77.7827C164.227 78.519 163.855 79.1686 163.11 79.7314L162.399 80.2456L163.992 82.0991C164.242 81.6082 164.367 81.0666 164.367 80.4741H165.928C165.928 81.6759 165.651 82.6493 165.097 83.394L166.48 85H164.398L163.922 84.4541C163.241 84.9027 162.458 85.127 161.574 85.127C160.66 85.127 159.928 84.8879 159.377 84.4097C158.827 83.9272 158.552 83.2946 158.552 82.5117ZM161.663 83.6543C162.103 83.6543 162.52 83.5316 162.913 83.2861L161.091 81.1787L160.958 81.2739C160.581 81.5955 160.393 81.9743 160.393 82.4102C160.393 82.7783 160.509 83.0788 160.742 83.3115C160.979 83.54 161.286 83.6543 161.663 83.6543ZM160.99 78.0366C160.99 78.354 161.176 78.7539 161.548 79.2363L162.037 78.9126C162.287 78.7518 162.458 78.5952 162.551 78.4429C162.649 78.2905 162.697 78.1086 162.697 77.897C162.697 77.6854 162.619 77.5013 162.462 77.3447C162.306 77.1882 162.105 77.1099 161.859 77.1099C161.597 77.1099 161.385 77.1945 161.225 77.3638C161.068 77.533 160.99 77.7573 160.99 78.0366ZM175.488 82.5752C175.488 82.2155 175.361 81.9404 175.107 81.75C174.853 81.5553 174.396 81.3522 173.736 81.1406C173.076 80.9248 172.553 80.7132 172.168 80.5059C171.118 79.9388 170.594 79.175 170.594 78.2144C170.594 77.715 170.733 77.2707 171.013 76.8813C171.296 76.4878 171.7 76.181 172.225 75.9609C172.754 75.7409 173.347 75.6309 174.002 75.6309C174.663 75.6309 175.251 75.7515 175.767 75.9927C176.283 76.2297 176.683 76.5661 176.967 77.002C177.255 77.4378 177.398 77.9329 177.398 78.4873H175.494C175.494 78.0641 175.361 77.7362 175.094 77.5034C174.828 77.2664 174.453 77.1479 173.971 77.1479C173.505 77.1479 173.143 77.2474 172.885 77.4463C172.627 77.641 172.498 77.8991 172.498 78.2207C172.498 78.5212 172.648 78.7729 172.949 78.9761C173.253 79.1792 173.7 79.3696 174.288 79.5474C175.371 79.8732 176.161 80.2773 176.656 80.7598C177.151 81.2422 177.398 81.8431 177.398 82.5625C177.398 83.3623 177.096 83.9907 176.491 84.4478C175.886 84.9006 175.071 85.127 174.047 85.127C173.336 85.127 172.688 84.9979 172.104 84.7397C171.521 84.4774 171.074 84.1198 170.765 83.667C170.46 83.2142 170.308 82.6895 170.308 82.0928H172.219C172.219 83.1126 172.828 83.6226 174.047 83.6226C174.5 83.6226 174.853 83.5316 175.107 83.3496C175.361 83.1634 175.488 82.9053 175.488 82.5752ZM182.553 85C182.468 84.835 182.407 84.6297 182.369 84.3843C181.924 84.8794 181.347 85.127 180.636 85.127C179.963 85.127 179.404 84.9323 178.96 84.543C178.52 84.1536 178.3 83.6628 178.3 83.0703C178.3 82.3424 178.569 81.7839 179.106 81.3945C179.648 81.0052 180.428 80.8084 181.448 80.8042H182.292V80.4106C182.292 80.0933 182.21 79.8394 182.045 79.6489C181.884 79.4585 181.628 79.3633 181.277 79.3633C180.968 79.3633 180.725 79.4373 180.547 79.5854C180.373 79.7336 180.287 79.9367 180.287 80.1948H178.452C178.452 79.797 178.575 79.4289 178.82 79.0903C179.066 78.7518 179.413 78.4873 179.861 78.2969C180.31 78.1022 180.813 78.0049 181.372 78.0049C182.218 78.0049 182.889 78.2186 183.384 78.646C183.884 79.0692 184.133 79.6659 184.133 80.436V83.4131C184.138 84.0648 184.229 84.5578 184.406 84.8921V85H182.553ZM181.036 83.7241C181.306 83.7241 181.556 83.6649 181.785 83.5464C182.013 83.4237 182.182 83.2607 182.292 83.0576V81.877H181.607C180.689 81.877 180.2 82.1943 180.141 82.8291L180.134 82.937C180.134 83.1655 180.215 83.3538 180.375 83.502C180.536 83.6501 180.756 83.7241 181.036 83.7241ZM186.044 85V79.4775H185.022V78.1318H186.044V77.5479C186.044 76.7777 186.264 76.181 186.704 75.7578C187.148 75.3304 187.768 75.1167 188.564 75.1167C188.818 75.1167 189.129 75.159 189.497 75.2437L189.478 76.6655C189.326 76.6274 189.139 76.6084 188.919 76.6084C188.23 76.6084 187.885 76.9321 187.885 77.5796V78.1318H189.25V79.4775H187.885V85H186.044ZM193.21 85.127C192.203 85.127 191.382 84.818 190.748 84.2002C190.117 83.5824 189.802 82.7593 189.802 81.731V81.5532C189.802 80.8634 189.935 80.2477 190.202 79.7061C190.468 79.1602 190.845 78.7412 191.332 78.4492C191.822 78.153 192.381 78.0049 193.007 78.0049C193.947 78.0049 194.685 78.3011 195.223 78.8936C195.764 79.486 196.035 80.326 196.035 81.4136V82.1626H191.662C191.721 82.6112 191.899 82.9709 192.195 83.2417C192.495 83.5125 192.874 83.6479 193.331 83.6479C194.038 83.6479 194.59 83.3919 194.988 82.8799L195.889 83.8892C195.614 84.2785 195.242 84.5832 194.772 84.8032C194.302 85.019 193.782 85.127 193.21 85.127ZM193.001 79.4902C192.637 79.4902 192.341 79.613 192.112 79.8584C191.888 80.1038 191.744 80.4551 191.681 80.9121H194.232V80.7661C194.224 80.3599 194.114 80.0467 193.902 79.8267C193.691 79.6024 193.39 79.4902 193.001 79.4902ZM199.279 76.4434V78.1318H200.453V79.4775H199.279V82.9053C199.279 83.1592 199.327 83.3411 199.425 83.4512C199.522 83.5612 199.708 83.6162 199.983 83.6162C200.187 83.6162 200.366 83.6014 200.523 83.5718V84.9619C200.163 85.0719 199.793 85.127 199.412 85.127C198.126 85.127 197.47 84.4774 197.444 83.1782V79.4775H196.441V78.1318H197.444V76.4434H199.279ZM204.04 82.4038L205.309 78.1318H207.277L204.516 86.0664L204.363 86.4282C203.953 87.3254 203.276 87.7739 202.332 87.7739C202.065 87.7739 201.795 87.7337 201.52 87.6533V86.2632L201.799 86.2695C202.146 86.2695 202.404 86.2166 202.573 86.1108C202.747 86.005 202.882 85.8294 202.979 85.584L203.195 85.019L200.79 78.1318H202.764L204.04 82.4038Z" fill="#AAAAAA"/>
<path d="M32.3472 100H30.4429V96.0391H26.7295V100H24.8252V90.7578H26.7295V94.5029H30.4429V90.7578H32.3472V100ZM33.6104 96.5024C33.6104 95.8211 33.7415 95.2139 34.0039 94.6807C34.2663 94.1475 34.6429 93.7349 35.1338 93.4429C35.6289 93.1509 36.2023 93.0049 36.854 93.0049C37.7808 93.0049 38.5361 93.2884 39.1201 93.8555C39.7083 94.4225 40.0363 95.1927 40.104 96.166L40.1167 96.6357C40.1167 97.6895 39.8226 98.5358 39.2344 99.1748C38.6462 99.8096 37.8569 100.127 36.8667 100.127C35.8765 100.127 35.0851 99.8096 34.4927 99.1748C33.9045 98.54 33.6104 97.6768 33.6104 96.585V96.5024ZM35.4448 96.6357C35.4448 97.2874 35.5675 97.7868 35.813 98.1338C36.0584 98.4766 36.4097 98.6479 36.8667 98.6479C37.311 98.6479 37.658 98.4787 37.9077 98.1401C38.1574 97.7974 38.2822 97.2515 38.2822 96.5024C38.2822 95.8634 38.1574 95.3683 37.9077 95.0171C37.658 94.6659 37.3068 94.4902 36.854 94.4902C36.4054 94.4902 36.0584 94.6659 35.813 95.0171C35.5675 95.3641 35.4448 95.9036 35.4448 96.6357ZM47.2197 97.5054L48.1211 93.1318H49.8921L48.1401 100H46.604L45.3027 95.6772L44.0015 100H42.4717L40.7197 93.1318H42.4907L43.3857 97.499L44.6426 93.1318H45.9692L47.2197 97.5054ZM57.3506 94.9219L59.2739 90.7578H61.356L58.3218 96.6484V100H56.3857V96.6484L53.3516 90.7578H55.4399L57.3506 94.9219ZM61.375 96.5024C61.375 95.8211 61.5062 95.2139 61.7686 94.6807C62.0309 94.1475 62.4076 93.7349 62.8984 93.4429C63.3936 93.1509 63.967 93.0049 64.6187 93.0049C65.5454 93.0049 66.3008 93.2884 66.8848 93.8555C67.473 94.4225 67.8009 95.1927 67.8687 96.166L67.8813 96.6357C67.8813 97.6895 67.5872 98.5358 66.999 99.1748C66.4108 99.8096 65.6216 100.127 64.6313 100.127C63.6411 100.127 62.8498 99.8096 62.2573 99.1748C61.6691 98.54 61.375 97.6768 61.375 96.585V96.5024ZM63.2095 96.6357C63.2095 97.2874 63.3322 97.7868 63.5776 98.1338C63.8231 98.4766 64.1743 98.6479 64.6313 98.6479C65.0757 98.6479 65.4227 98.4787 65.6724 98.1401C65.922 97.7974 66.0469 97.2515 66.0469 96.5024C66.0469 95.8634 65.922 95.3683 65.6724 95.0171C65.4227 94.6659 65.0715 94.4902 64.6187 94.4902C64.1701 94.4902 63.8231 94.6659 63.5776 95.0171C63.3322 95.3641 63.2095 95.9036 63.2095 96.6357ZM73.1245 99.3018C72.6717 99.8519 72.0454 100.127 71.2456 100.127C70.5093 100.127 69.9465 99.9154 69.5571 99.4922C69.172 99.069 68.9753 98.4491 68.9668 97.6323V93.1318H70.8013V97.5688C70.8013 98.284 71.1271 98.6416 71.7788 98.6416C72.4009 98.6416 72.8283 98.4258 73.061 97.9941V93.1318H74.9019V100H73.1753L73.1245 99.3018ZM78.4819 91.4434V93.1318H79.6562V94.4775H78.4819V97.9053C78.4819 98.1592 78.5306 98.3411 78.6279 98.4512C78.7253 98.5612 78.9115 98.6162 79.1865 98.6162C79.3896 98.6162 79.5695 98.6014 79.7261 98.5718V99.9619C79.3664 100.072 78.9961 100.127 78.6152 100.127C77.3288 100.127 76.6729 99.4774 76.6475 98.1782V94.4775H75.6445V93.1318H76.6475V91.4434H78.4819ZM84.7915 99.3018C84.3387 99.8519 83.7124 100.127 82.9126 100.127C82.1763 100.127 81.6134 99.9154 81.2241 99.4922C80.839 99.069 80.6423 98.4491 80.6338 97.6323V93.1318H82.4683V97.5688C82.4683 98.284 82.7941 98.6416 83.4458 98.6416C84.0679 98.6416 84.4953 98.4258 84.728 97.9941V93.1318H86.5688V100H84.8423L84.7915 99.3018ZM94.1416 96.6294C94.1416 97.7297 93.9067 98.5887 93.437 99.2065C92.9673 99.8201 92.3114 100.127 91.4692 100.127C90.7244 100.127 90.1299 99.8413 89.6855 99.27L89.603 100H87.9526V90.25H89.7871V93.7476C90.2103 93.2524 90.7668 93.0049 91.4565 93.0049C92.2944 93.0049 92.9504 93.3138 93.4243 93.9316C93.9025 94.5452 94.1416 95.4106 94.1416 96.5278V96.6294ZM92.3071 96.4961C92.3071 95.8021 92.1971 95.2964 91.9771 94.979C91.757 94.6574 91.429 94.4966 90.9932 94.4966C90.4092 94.4966 90.0072 94.7357 89.7871 95.2139V97.9243C90.0114 98.4067 90.4176 98.6479 91.0059 98.6479C91.5983 98.6479 91.9876 98.356 92.1738 97.772C92.2627 97.4927 92.3071 97.0674 92.3071 96.4961ZM98.439 100.127C97.4318 100.127 96.6108 99.818 95.9761 99.2002C95.3455 98.5824 95.0303 97.7593 95.0303 96.731V96.5532C95.0303 95.8634 95.1636 95.2477 95.4302 94.7061C95.6968 94.1602 96.0734 93.7412 96.5601 93.4492C97.0509 93.153 97.6095 93.0049 98.2358 93.0049C99.1753 93.0049 99.9137 93.3011 100.451 93.8936C100.993 94.486 101.264 95.326 101.264 96.4136V97.1626H96.8901C96.9494 97.6112 97.1271 97.9709 97.4233 98.2417C97.7238 98.5125 98.1025 98.6479 98.5596 98.6479C99.2663 98.6479 99.8185 98.3919 100.216 97.8799L101.118 98.8892C100.843 99.2785 100.47 99.5832 100 99.8032C99.5308 100.019 99.0103 100.127 98.439 100.127ZM98.2295 94.4902C97.8656 94.4902 97.5693 94.613 97.3408 94.8584C97.1165 95.1038 96.9727 95.4551 96.9092 95.9121H99.4609V95.7661C99.4525 95.3599 99.3424 95.0467 99.1309 94.8267C98.9193 94.6024 98.6188 94.4902 98.2295 94.4902ZM111.521 97.5054L112.423 93.1318H114.194L112.442 100H110.906L109.604 95.6772L108.303 100H106.773L105.021 93.1318H106.792L107.688 97.499L108.944 93.1318H110.271L111.521 97.5054ZM114.822 96.5024C114.822 95.8211 114.953 95.2139 115.216 94.6807C115.478 94.1475 115.855 93.7349 116.346 93.4429C116.841 93.1509 117.414 93.0049 118.066 93.0049C118.993 93.0049 119.748 93.2884 120.332 93.8555C120.92 94.4225 121.248 95.1927 121.316 96.166L121.329 96.6357C121.329 97.6895 121.035 98.5358 120.446 99.1748C119.858 99.8096 119.069 100.127 118.079 100.127C117.088 100.127 116.297 99.8096 115.705 99.1748C115.116 98.54 114.822 97.6768 114.822 96.585V96.5024ZM116.657 96.6357C116.657 97.2874 116.779 97.7868 117.025 98.1338C117.27 98.4766 117.622 98.6479 118.079 98.6479C118.523 98.6479 118.87 98.4787 119.12 98.1401C119.369 97.7974 119.494 97.2515 119.494 96.5024C119.494 95.8634 119.369 95.3683 119.12 95.0171C118.87 94.6659 118.519 94.4902 118.066 94.4902C117.617 94.4902 117.27 94.6659 117.025 95.0171C116.779 95.3641 116.657 95.9036 116.657 96.6357ZM126.318 94.8521C126.068 94.8182 125.848 94.8013 125.658 94.8013C124.964 94.8013 124.509 95.0361 124.293 95.5059V100H122.458V93.1318H124.191L124.242 93.9507C124.61 93.3201 125.12 93.0049 125.772 93.0049C125.975 93.0049 126.166 93.0324 126.343 93.0874L126.318 94.8521ZM129.701 97.2451L129.041 97.9053V100H127.207V90.25H129.041V95.6519L129.396 95.1948L131.155 93.1318H133.357L130.875 95.9946L133.573 100H131.466L129.701 97.2451ZM137.871 98.1021C137.871 97.8778 137.758 97.7021 137.534 97.5752C137.314 97.444 136.959 97.3276 136.468 97.2261C134.834 96.8833 134.018 96.1893 134.018 95.144C134.018 94.5347 134.269 94.0269 134.773 93.6206C135.281 93.2101 135.943 93.0049 136.76 93.0049C137.632 93.0049 138.328 93.2101 138.848 93.6206C139.373 94.0311 139.635 94.5643 139.635 95.2202H137.801C137.801 94.9578 137.716 94.742 137.547 94.5728C137.378 94.3993 137.113 94.3125 136.753 94.3125C136.444 94.3125 136.205 94.3823 136.036 94.522C135.867 94.6616 135.782 94.8394 135.782 95.0552C135.782 95.2583 135.877 95.4233 136.068 95.5503C136.263 95.673 136.588 95.7809 137.045 95.874C137.502 95.9629 137.888 96.0645 138.201 96.1787C139.17 96.5342 139.654 97.1499 139.654 98.0259C139.654 98.6522 139.386 99.16 138.848 99.5493C138.311 99.9344 137.617 100.127 136.766 100.127C136.191 100.127 135.679 100.025 135.23 99.8223C134.786 99.6149 134.437 99.3335 134.183 98.978C133.929 98.6183 133.802 98.2311 133.802 97.8164H135.541C135.558 98.1423 135.679 98.3919 135.903 98.5654C136.127 98.7389 136.428 98.8257 136.804 98.8257C137.155 98.8257 137.42 98.7601 137.598 98.6289C137.78 98.4935 137.871 98.3179 137.871 98.1021Z" fill="#AAAAAA"/>
<path d="M31.7822 107.3H28.9512V115H27.0469V107.3H24.2539V105.758H31.7822V107.3ZM35.3433 115.127C34.3361 115.127 33.5151 114.818 32.8804 114.2C32.2498 113.582 31.9346 112.759 31.9346 111.731V111.553C31.9346 110.863 32.0679 110.248 32.3345 109.706C32.6011 109.16 32.9777 108.741 33.4644 108.449C33.9552 108.153 34.5138 108.005 35.1401 108.005C36.0796 108.005 36.818 108.301 37.3555 108.894C37.8971 109.486 38.168 110.326 38.168 111.414V112.163H33.7944C33.8537 112.611 34.0314 112.971 34.3276 113.242C34.6281 113.513 35.0068 113.648 35.4639 113.648C36.1706 113.648 36.7228 113.392 37.1206 112.88L38.022 113.889C37.7469 114.278 37.3745 114.583 36.9048 114.803C36.4351 115.019 35.9146 115.127 35.3433 115.127ZM35.1338 109.49C34.7699 109.49 34.4736 109.613 34.2451 109.858C34.0208 110.104 33.877 110.455 33.8135 110.912H36.3652V110.766C36.3568 110.36 36.2467 110.047 36.0352 109.827C35.8236 109.602 35.5231 109.49 35.1338 109.49ZM42.9351 113.102C42.9351 112.878 42.8229 112.702 42.5986 112.575C42.3786 112.444 42.0231 112.328 41.5322 112.226C39.8988 111.883 39.082 111.189 39.082 110.144C39.082 109.535 39.3338 109.027 39.8374 108.621C40.3452 108.21 41.0075 108.005 41.8242 108.005C42.696 108.005 43.3921 108.21 43.9126 108.621C44.4373 109.031 44.6997 109.564 44.6997 110.22H42.8652C42.8652 109.958 42.7806 109.742 42.6113 109.573C42.4421 109.399 42.1776 109.312 41.8179 109.312C41.509 109.312 41.2699 109.382 41.1006 109.522C40.9313 109.662 40.8467 109.839 40.8467 110.055C40.8467 110.258 40.9419 110.423 41.1323 110.55C41.327 110.673 41.6528 110.781 42.1099 110.874C42.5669 110.963 42.952 111.064 43.2651 111.179C44.2342 111.534 44.7188 112.15 44.7188 113.026C44.7188 113.652 44.45 114.16 43.9126 114.549C43.3752 114.934 42.6812 115.127 41.8306 115.127C41.255 115.127 40.743 115.025 40.2944 114.822C39.8501 114.615 39.501 114.333 39.2471 113.978C38.9932 113.618 38.8662 113.231 38.8662 112.816H40.6055C40.6224 113.142 40.743 113.392 40.9673 113.565C41.1916 113.739 41.492 113.826 41.8687 113.826C42.2199 113.826 42.4844 113.76 42.6621 113.629C42.8441 113.493 42.9351 113.318 42.9351 113.102ZM48.1021 106.443V108.132H49.2764V109.478H48.1021V112.905C48.1021 113.159 48.1507 113.341 48.248 113.451C48.3454 113.561 48.5316 113.616 48.8066 113.616C49.0098 113.616 49.1896 113.601 49.3462 113.572V114.962C48.9865 115.072 48.6162 115.127 48.2354 115.127C46.9489 115.127 46.293 114.477 46.2676 113.178V109.478H45.2646V108.132H46.2676V106.443H48.1021ZM55.2241 108.132L55.2812 108.925C55.7721 108.312 56.4302 108.005 57.2554 108.005C57.9832 108.005 58.5249 108.219 58.8804 108.646C59.2358 109.073 59.4178 109.712 59.4263 110.563V115H57.5918V110.607C57.5918 110.218 57.5072 109.937 57.3379 109.763C57.1686 109.585 56.8872 109.497 56.4937 109.497C55.9774 109.497 55.5902 109.717 55.332 110.157V115H53.4976V108.132H55.2241ZM63.9839 115.127C62.9767 115.127 62.1558 114.818 61.521 114.2C60.8905 113.582 60.5752 112.759 60.5752 111.731V111.553C60.5752 110.863 60.7085 110.248 60.9751 109.706C61.2417 109.16 61.6183 108.741 62.105 108.449C62.5959 108.153 63.1545 108.005 63.7808 108.005C64.7202 108.005 65.4587 108.301 65.9961 108.894C66.5378 109.486 66.8086 110.326 66.8086 111.414V112.163H62.4351C62.4943 112.611 62.672 112.971 62.9683 113.242C63.2687 113.513 63.6475 113.648 64.1045 113.648C64.8112 113.648 65.3634 113.392 65.7612 112.88L66.6626 113.889C66.3875 114.278 66.0151 114.583 65.5454 114.803C65.0757 115.019 64.5552 115.127 63.9839 115.127ZM63.7744 109.49C63.4105 109.49 63.1143 109.613 62.8857 109.858C62.6615 110.104 62.5176 110.455 62.4541 110.912H65.0059V110.766C64.9974 110.36 64.8874 110.047 64.6758 109.827C64.4642 109.602 64.1637 109.49 63.7744 109.49ZM73.8291 112.505L74.7305 108.132H76.5015L74.7495 115H73.2134L71.9121 110.677L70.6108 115H69.0811L67.3291 108.132H69.1001L69.9951 112.499L71.252 108.132H72.5786L73.8291 112.505ZM81.1543 115V109.478H80.1323V108.132H81.1543V107.548C81.1543 106.778 81.3743 106.181 81.8145 105.758C82.2588 105.33 82.8787 105.117 83.6743 105.117C83.9282 105.117 84.2393 105.159 84.6074 105.244L84.5884 106.666C84.436 106.627 84.2498 106.608 84.0298 106.608C83.34 106.608 82.9951 106.932 82.9951 107.58V108.132H84.3599V109.478H82.9951V115H81.1543ZM88.3208 115.127C87.3136 115.127 86.4927 114.818 85.8579 114.2C85.2274 113.582 84.9121 112.759 84.9121 111.731V111.553C84.9121 110.863 85.0454 110.248 85.312 109.706C85.5786 109.16 85.9552 108.741 86.4419 108.449C86.9328 108.153 87.4914 108.005 88.1177 108.005C89.0571 108.005 89.7956 108.301 90.333 108.894C90.8747 109.486 91.1455 110.326 91.1455 111.414V112.163H86.772C86.8312 112.611 87.009 112.971 87.3052 113.242C87.6056 113.513 87.9844 113.648 88.4414 113.648C89.1481 113.648 89.7004 113.392 90.0981 112.88L90.9995 113.889C90.7244 114.278 90.3521 114.583 89.8823 114.803C89.4126 115.019 88.8921 115.127 88.3208 115.127ZM88.1113 109.49C87.7474 109.49 87.4512 109.613 87.2227 109.858C86.9984 110.104 86.8545 110.455 86.791 110.912H89.3428V110.766C89.3343 110.36 89.2243 110.047 89.0127 109.827C88.8011 109.602 88.5007 109.49 88.1113 109.49ZM96.1729 115C96.0882 114.835 96.0269 114.63 95.9888 114.384C95.5444 114.879 94.9668 115.127 94.2559 115.127C93.583 115.127 93.0244 114.932 92.5801 114.543C92.14 114.154 91.9199 113.663 91.9199 113.07C91.9199 112.342 92.1886 111.784 92.7261 111.395C93.2677 111.005 94.0485 110.808 95.0684 110.804H95.9126V110.411C95.9126 110.093 95.8301 109.839 95.665 109.649C95.5042 109.458 95.2482 109.363 94.897 109.363C94.5881 109.363 94.3447 109.437 94.167 109.585C93.9935 109.734 93.9067 109.937 93.9067 110.195H92.0723C92.0723 109.797 92.195 109.429 92.4404 109.09C92.6859 108.752 93.0329 108.487 93.4814 108.297C93.93 108.102 94.4336 108.005 94.9922 108.005C95.8385 108.005 96.5093 108.219 97.0044 108.646C97.5037 109.069 97.7534 109.666 97.7534 110.436V113.413C97.7576 114.065 97.8486 114.558 98.0264 114.892V115H96.1729ZM94.6558 113.724C94.9266 113.724 95.1763 113.665 95.4048 113.546C95.6333 113.424 95.8026 113.261 95.9126 113.058V111.877H95.2271C94.3088 111.877 93.82 112.194 93.7607 112.829L93.7544 112.937C93.7544 113.166 93.8348 113.354 93.9956 113.502C94.1564 113.65 94.3765 113.724 94.6558 113.724ZM101.359 106.443V108.132H102.533V109.478H101.359V112.905C101.359 113.159 101.408 113.341 101.505 113.451C101.602 113.561 101.788 113.616 102.063 113.616C102.267 113.616 102.446 113.601 102.603 113.572V114.962C102.243 115.072 101.873 115.127 101.492 115.127C100.206 115.127 99.5498 114.477 99.5244 113.178V109.478H98.5215V108.132H99.5244V106.443H101.359ZM107.668 114.302C107.216 114.852 106.589 115.127 105.79 115.127C105.053 115.127 104.49 114.915 104.101 114.492C103.716 114.069 103.519 113.449 103.511 112.632V108.132H105.345V112.569C105.345 113.284 105.671 113.642 106.323 113.642C106.945 113.642 107.372 113.426 107.605 112.994V108.132H109.446V115H107.719L107.668 114.302ZM114.689 109.852C114.439 109.818 114.219 109.801 114.029 109.801C113.335 109.801 112.88 110.036 112.664 110.506V115H110.83V108.132H112.562L112.613 108.951C112.981 108.32 113.491 108.005 114.143 108.005C114.346 108.005 114.537 108.032 114.714 108.087L114.689 109.852ZM118.612 115.127C117.605 115.127 116.784 114.818 116.149 114.2C115.518 113.582 115.203 112.759 115.203 111.731V111.553C115.203 110.863 115.336 110.248 115.603 109.706C115.87 109.16 116.246 108.741 116.733 108.449C117.224 108.153 117.782 108.005 118.409 108.005C119.348 108.005 120.087 108.301 120.624 108.894C121.166 109.486 121.437 110.326 121.437 111.414V112.163H117.063C117.122 112.611 117.3 112.971 117.596 113.242C117.897 113.513 118.275 113.648 118.732 113.648C119.439 113.648 119.991 113.392 120.389 112.88L121.291 113.889C121.015 114.278 120.643 114.583 120.173 114.803C119.704 115.019 119.183 115.127 118.612 115.127ZM118.402 109.49C118.038 109.49 117.742 109.613 117.514 109.858C117.289 110.104 117.146 110.455 117.082 110.912H119.634V110.766C119.625 110.36 119.515 110.047 119.304 109.827C119.092 109.602 118.792 109.49 118.402 109.49ZM126.204 113.102C126.204 112.878 126.091 112.702 125.867 112.575C125.647 112.444 125.292 112.328 124.801 112.226C123.167 111.883 122.351 111.189 122.351 110.144C122.351 109.535 122.602 109.027 123.106 108.621C123.614 108.21 124.276 108.005 125.093 108.005C125.965 108.005 126.661 108.21 127.181 108.621C127.706 109.031 127.968 109.564 127.968 110.22H126.134C126.134 109.958 126.049 109.742 125.88 109.573C125.711 109.399 125.446 109.312 125.086 109.312C124.778 109.312 124.538 109.382 124.369 109.522C124.2 109.662 124.115 109.839 124.115 110.055C124.115 110.258 124.21 110.423 124.401 110.55C124.596 110.673 124.921 110.781 125.378 110.874C125.835 110.963 126.221 111.064 126.534 111.179C127.503 111.534 127.987 112.15 127.987 113.026C127.987 113.652 127.719 114.16 127.181 114.549C126.644 114.934 125.95 115.127 125.099 115.127C124.524 115.127 124.012 115.025 123.563 114.822C123.119 114.615 122.77 114.333 122.516 113.978C122.262 113.618 122.135 113.231 122.135 112.816H123.874C123.891 113.142 124.012 113.392 124.236 113.565C124.46 113.739 124.761 113.826 125.137 113.826C125.488 113.826 125.753 113.76 125.931 113.629C126.113 113.493 126.204 113.318 126.204 113.102Z" fill="#AAAAAA"/>
<path d="M30.5449 141.508C30.5449 142.102 30.373 142.557 30.0293 142.873C29.6895 143.189 29.207 143.348 28.582 143.348C27.957 143.348 27.459 143.141 27.0879 142.727C26.7207 142.309 26.5371 141.748 26.5371 141.045V140.383C26.5371 139.703 26.7227 139.156 27.0938 138.742C27.4688 138.324 27.9648 138.115 28.582 138.115C29.2188 138.115 29.7051 138.277 30.041 138.602C30.3809 138.922 30.5508 139.373 30.5508 139.955H29.6367C29.6367 139.58 29.5469 139.312 29.3672 139.152C29.1875 138.988 28.9258 138.906 28.582 138.906C28.2227 138.906 27.9434 139.039 27.7441 139.305C27.5488 139.566 27.4492 139.918 27.4453 140.359V141.08C27.4453 141.537 27.5449 141.898 27.7441 142.164C27.9434 142.426 28.2227 142.557 28.582 142.557C28.9297 142.557 29.1914 142.479 29.3672 142.322C29.543 142.162 29.6309 141.891 29.6309 141.508H30.5449ZM32.1035 140.729C32.1035 140.08 31.957 139.479 31.6641 138.924C31.3711 138.365 30.957 137.92 30.4219 137.588C29.8867 137.252 29.3008 137.084 28.6641 137.084C28.043 137.084 27.4648 137.244 26.9297 137.564C26.3984 137.885 25.9805 138.326 25.6758 138.889C25.3711 139.451 25.2188 140.064 25.2188 140.729C25.2188 141.393 25.3691 142.006 25.6699 142.568C25.9746 143.131 26.3926 143.576 26.9238 143.904C27.459 144.229 28.0391 144.391 28.6641 144.391C29.2891 144.391 29.8691 144.225 30.4043 143.893C30.9434 143.561 31.3613 143.113 31.6582 142.551C31.9551 141.988 32.1035 141.381 32.1035 140.729ZM24.5039 140.729C24.5039 139.939 24.6855 139.207 25.0488 138.531C25.416 137.855 25.9219 137.324 26.5664 136.938C27.2148 136.547 27.9141 136.352 28.6641 136.352C29.4141 136.352 30.1113 136.547 30.7559 136.938C31.4043 137.324 31.9102 137.855 32.2734 138.531C32.6406 139.207 32.8242 139.939 32.8242 140.729C32.8242 141.525 32.6387 142.264 32.2676 142.943C31.8965 143.619 31.3887 144.15 30.7441 144.537C30.1035 144.924 29.4102 145.117 28.6641 145.117C27.9102 145.117 27.2109 144.922 26.5664 144.531C25.9258 144.141 25.4219 143.607 25.0547 142.932C24.6875 142.256 24.5039 141.521 24.5039 140.729ZM42.8262 145H36.9785V143.84L39.7383 140.898C40.1172 140.484 40.3965 140.123 40.5762 139.814C40.7598 139.506 40.8516 139.213 40.8516 138.936C40.8516 138.557 40.7559 138.26 40.5645 138.045C40.373 137.826 40.0996 137.717 39.7441 137.717C39.3613 137.717 39.0586 137.85 38.8359 138.115C38.6172 138.377 38.5078 138.723 38.5078 139.152H36.8086C36.8086 138.633 36.9316 138.158 37.1777 137.729C37.4277 137.299 37.7793 136.963 38.2324 136.721C38.6855 136.475 39.1992 136.352 39.7734 136.352C40.6523 136.352 41.334 136.562 41.8184 136.984C42.3066 137.406 42.5508 138.002 42.5508 138.771C42.5508 139.193 42.4414 139.623 42.2227 140.061C42.0039 140.498 41.6289 141.008 41.0977 141.59L39.1582 143.635H42.8262V145ZM49.6113 141.473C49.6113 142.652 49.3672 143.555 48.8789 144.18C48.3906 144.805 47.6758 145.117 46.7344 145.117C45.8047 145.117 45.0938 144.811 44.6016 144.197C44.1094 143.584 43.8574 142.705 43.8457 141.561V139.99C43.8457 138.799 44.0918 137.895 44.584 137.277C45.0801 136.66 45.793 136.352 46.7227 136.352C47.6523 136.352 48.3633 136.658 48.8555 137.271C49.3477 137.881 49.5996 138.758 49.6113 139.902V141.473ZM47.918 139.75C47.918 139.043 47.8203 138.529 47.625 138.209C47.4336 137.885 47.1328 137.723 46.7227 137.723C46.3242 137.723 46.0293 137.877 45.8379 138.186C45.6504 138.49 45.5508 138.969 45.5391 139.621V141.695C45.5391 142.391 45.6328 142.908 45.8203 143.248C46.0117 143.584 46.3164 143.752 46.7344 143.752C47.1484 143.752 47.4473 143.59 47.6309 143.266C47.8145 142.941 47.9102 142.445 47.918 141.777V139.75ZM56.6074 145H50.7598V143.84L53.5195 140.898C53.8984 140.484 54.1777 140.123 54.3574 139.814C54.541 139.506 54.6328 139.213 54.6328 138.936C54.6328 138.557 54.5371 138.26 54.3457 138.045C54.1543 137.826 53.8809 137.717 53.5254 137.717C53.1426 137.717 52.8398 137.85 52.6172 138.115C52.3984 138.377 52.2891 138.723 52.2891 139.152H50.5898C50.5898 138.633 50.7129 138.158 50.959 137.729C51.209 137.299 51.5605 136.963 52.0137 136.721C52.4668 136.475 52.9805 136.352 53.5547 136.352C54.4336 136.352 55.1152 136.562 55.5996 136.984C56.0879 137.406 56.332 138.002 56.332 138.771C56.332 139.193 56.2227 139.623 56.0039 140.061C55.7852 140.498 55.4102 141.008 54.8789 141.59L52.9395 143.635H56.6074V145ZM61.7637 145H60.0703V138.473L58.0488 139.1V137.723L61.582 136.457H61.7637V145ZM74.4609 143.922C74.1445 144.301 73.6973 144.596 73.1191 144.807C72.541 145.014 71.9004 145.117 71.1973 145.117C70.459 145.117 69.8105 144.957 69.252 144.637C68.6973 144.312 68.2676 143.844 67.9629 143.23C67.6621 142.617 67.5078 141.896 67.5 141.068V140.488C67.5 139.637 67.6426 138.9 67.9277 138.279C68.2168 137.654 68.6309 137.178 69.1699 136.85C69.7129 136.518 70.3477 136.352 71.0742 136.352C72.0859 136.352 72.877 136.594 73.4473 137.078C74.0176 137.559 74.3555 138.26 74.4609 139.182H72.75C72.6719 138.693 72.498 138.336 72.2285 138.109C71.9629 137.883 71.5957 137.77 71.127 137.77C70.5293 137.77 70.0742 137.994 69.7617 138.443C69.4492 138.893 69.291 139.561 69.2871 140.447V140.992C69.2871 141.887 69.457 142.562 69.7969 143.02C70.1367 143.477 70.6348 143.705 71.291 143.705C71.9512 143.705 72.4219 143.564 72.7031 143.283V141.812H71.1035V140.518H74.4609V143.922ZM75.5156 141.771C75.5156 141.143 75.6367 140.582 75.8789 140.09C76.1211 139.598 76.4688 139.217 76.9219 138.947C77.3789 138.678 77.9082 138.543 78.5098 138.543C79.3652 138.543 80.0625 138.805 80.6016 139.328C81.1445 139.852 81.4473 140.562 81.5098 141.461L81.5215 141.895C81.5215 142.867 81.25 143.648 80.707 144.238C80.1641 144.824 79.4355 145.117 78.5215 145.117C77.6074 145.117 76.877 144.824 76.3301 144.238C75.7871 143.652 75.5156 142.855 75.5156 141.848V141.771ZM77.209 141.895C77.209 142.496 77.3223 142.957 77.5488 143.277C77.7754 143.594 78.0996 143.752 78.5215 143.752C78.9316 143.752 79.252 143.596 79.4824 143.283C79.7129 142.967 79.8281 142.463 79.8281 141.771C79.8281 141.182 79.7129 140.725 79.4824 140.4C79.252 140.076 78.9277 139.914 78.5098 139.914C78.0957 139.914 77.7754 140.076 77.5488 140.4C77.3223 140.721 77.209 141.219 77.209 141.895ZM82.3008 141.771C82.3008 141.143 82.4219 140.582 82.6641 140.09C82.9062 139.598 83.2539 139.217 83.707 138.947C84.1641 138.678 84.6934 138.543 85.2949 138.543C86.1504 138.543 86.8477 138.805 87.3867 139.328C87.9297 139.852 88.2324 140.562 88.2949 141.461L88.3066 141.895C88.3066 142.867 88.0352 143.648 87.4922 144.238C86.9492 144.824 86.2207 145.117 85.3066 145.117C84.3926 145.117 83.6621 144.824 83.1152 144.238C82.5723 143.652 82.3008 142.855 82.3008 141.848V141.771ZM83.9941 141.895C83.9941 142.496 84.1074 142.957 84.334 143.277C84.5605 143.594 84.8848 143.752 85.3066 143.752C85.7168 143.752 86.0371 143.596 86.2676 143.283C86.498 142.967 86.6133 142.463 86.6133 141.771C86.6133 141.182 86.498 140.725 86.2676 140.4C86.0371 140.076 85.7129 139.914 85.2949 139.914C84.8809 139.914 84.5605 140.076 84.334 140.4C84.1074 140.721 83.9941 141.219 83.9941 141.895ZM89.1035 141.783C89.1035 140.811 89.334 140.027 89.7949 139.434C90.2598 138.84 90.8848 138.543 91.6699 138.543C92.3652 138.543 92.9062 138.781 93.293 139.258L93.3633 138.66H94.8984V144.789C94.8984 145.344 94.7715 145.826 94.5176 146.236C94.2676 146.646 93.9141 146.959 93.457 147.174C93 147.389 92.4648 147.496 91.8516 147.496C91.3867 147.496 90.9336 147.402 90.4922 147.215C90.0508 147.031 89.7168 146.793 89.4902 146.5L90.2402 145.469C90.6621 145.941 91.1738 146.178 91.7754 146.178C92.2246 146.178 92.5742 146.057 92.8242 145.814C93.0742 145.576 93.1992 145.236 93.1992 144.795V144.455C92.8086 144.896 92.2949 145.117 91.6582 145.117C90.8965 145.117 90.2793 144.82 89.8066 144.227C89.3379 143.629 89.1035 142.838 89.1035 141.854V141.783ZM90.7969 141.906C90.7969 142.48 90.9121 142.932 91.1426 143.26C91.373 143.584 91.6895 143.746 92.0918 143.746C92.6074 143.746 92.9766 143.553 93.1992 143.166V140.5C92.9727 140.113 92.6074 139.92 92.1035 139.92C91.6973 139.92 91.377 140.086 91.1426 140.418C90.9121 140.75 90.7969 141.246 90.7969 141.906ZM97.9922 145H96.293V136H97.9922V145ZM102.311 145.117C101.381 145.117 100.623 144.832 100.037 144.262C99.4551 143.691 99.1641 142.932 99.1641 141.982V141.818C99.1641 141.182 99.2871 140.613 99.5332 140.113C99.7793 139.609 100.127 139.223 100.576 138.953C101.029 138.68 101.545 138.543 102.123 138.543C102.99 138.543 103.672 138.816 104.168 139.363C104.668 139.91 104.918 140.686 104.918 141.689V142.381H100.881C100.936 142.795 101.1 143.127 101.373 143.377C101.65 143.627 102 143.752 102.422 143.752C103.074 143.752 103.584 143.516 103.951 143.043L104.783 143.975C104.529 144.334 104.186 144.615 103.752 144.818C103.318 145.018 102.838 145.117 102.311 145.117ZM102.117 139.914C101.781 139.914 101.508 140.027 101.297 140.254C101.09 140.48 100.957 140.805 100.898 141.227H103.254V141.092C103.246 140.717 103.145 140.428 102.949 140.225C102.754 140.018 102.477 139.914 102.117 139.914ZM110.742 143.588H114.475V145H108.984V136.469H110.742V143.588ZM117.246 143.588H120.979V145H115.488V136.469H117.246V143.588ZM128.314 142.158C128.248 143.076 127.908 143.799 127.295 144.326C126.686 144.854 125.881 145.117 124.881 145.117C123.787 145.117 122.926 144.75 122.297 144.016C121.672 143.277 121.359 142.266 121.359 140.98V140.459C121.359 139.639 121.504 138.916 121.793 138.291C122.082 137.666 122.494 137.188 123.029 136.855C123.568 136.52 124.193 136.352 124.904 136.352C125.889 136.352 126.682 136.615 127.283 137.143C127.885 137.67 128.232 138.41 128.326 139.363H126.568C126.525 138.812 126.371 138.414 126.105 138.168C125.844 137.918 125.443 137.793 124.904 137.793C124.318 137.793 123.879 138.004 123.586 138.426C123.297 138.844 123.148 139.494 123.141 140.377V141.021C123.141 141.943 123.279 142.617 123.557 143.043C123.838 143.469 124.279 143.682 124.881 143.682C125.424 143.682 125.828 143.559 126.094 143.312C126.363 143.062 126.518 142.678 126.557 142.158H128.314Z" fill="#AAAAAA"/>
</svg>
