<svg width="146" height="12" viewBox="0 0 146 12" fill="none" xmlns="http://www.w3.org/2000/svg">
<path d="M3.56836 1.04688L6.125 8.26562L8.66797 1.04688H11.3613V11H9.30371V8.2793L9.50879 3.58301L6.82227 11H5.41406L2.73438 3.58984L2.93945 8.2793V11H0.888672V1.04688H3.56836ZM21.3281 6.24902C21.3281 7.22884 21.1549 8.08789 20.8086 8.82617C20.4622 9.56445 19.9655 10.1341 19.3184 10.5352C18.6758 10.9362 17.9375 11.1367 17.1035 11.1367C16.2786 11.1367 15.5426 10.9385 14.8955 10.542C14.2484 10.1455 13.7471 9.5804 13.3916 8.84668C13.0361 8.1084 12.8561 7.26074 12.8516 6.30371V5.81152C12.8516 4.83171 13.027 3.97038 13.3779 3.22754C13.7334 2.48014 14.2324 1.9082 14.875 1.51172C15.5221 1.11068 16.2604 0.910156 17.0898 0.910156C17.9193 0.910156 18.6553 1.11068 19.2979 1.51172C19.945 1.9082 20.444 2.48014 20.7949 3.22754C21.1504 3.97038 21.3281 4.82943 21.3281 5.80469V6.24902ZM19.25 5.79785C19.25 4.75423 19.0632 3.96126 18.6895 3.41895C18.3158 2.87663 17.7826 2.60547 17.0898 2.60547C16.4017 2.60547 15.8708 2.87435 15.4971 3.41211C15.1234 3.94531 14.9342 4.72917 14.9297 5.76367V6.24902C14.9297 7.2653 15.1165 8.05371 15.4902 8.61426C15.8639 9.1748 16.4017 9.45508 17.1035 9.45508C17.7917 9.45508 18.3203 9.1862 18.6895 8.64844C19.0586 8.10612 19.2454 7.31771 19.25 6.2832V5.79785ZM26.5029 7.35645H24.8691V11H22.8184V1.04688H26.5166C27.6924 1.04688 28.5993 1.30892 29.2373 1.83301C29.8753 2.3571 30.1943 3.09766 30.1943 4.05469C30.1943 4.73372 30.0462 5.30111 29.75 5.75684C29.4583 6.20801 29.014 6.56803 28.417 6.83691L30.5703 10.9043V11H28.3691L26.5029 7.35645ZM24.8691 5.69531H26.5234C27.0384 5.69531 27.4372 5.56543 27.7197 5.30566C28.0023 5.04134 28.1436 4.67904 28.1436 4.21875C28.1436 3.74935 28.0091 3.38021 27.7402 3.11133C27.4759 2.84245 27.068 2.70801 26.5166 2.70801H24.8691V5.69531ZM37.748 6.68652H33.8105V9.35254H38.4316V11H31.7598V1.04688H38.418V2.70801H33.8105V5.08008H37.748V6.68652ZM49.1094 6.93262H45.1719V11H43.1211V1.04688H49.6016V2.70801H45.1719V5.27832H49.1094V6.93262ZM54.4756 7.35645H52.8418V11H50.791V1.04688H54.4893C55.665 1.04688 56.5719 1.30892 57.21 1.83301C57.848 2.3571 58.167 3.09766 58.167 4.05469C58.167 4.73372 58.0189 5.30111 57.7227 5.75684C57.431 6.20801 56.9867 6.56803 56.3896 6.83691L58.543 10.9043V11H56.3418L54.4756 7.35645ZM52.8418 5.69531H54.4961C55.0111 5.69531 55.4098 5.56543 55.6924 5.30566C55.9749 5.04134 56.1162 4.67904 56.1162 4.21875C56.1162 3.74935 55.9818 3.38021 55.7129 3.11133C55.4486 2.84245 55.0407 2.70801 54.4893 2.70801H52.8418V5.69531ZM67.9082 6.24902C67.9082 7.22884 67.735 8.08789 67.3887 8.82617C67.0423 9.56445 66.5456 10.1341 65.8984 10.5352C65.2559 10.9362 64.5176 11.1367 63.6836 11.1367C62.8587 11.1367 62.1227 10.9385 61.4756 10.542C60.8285 10.1455 60.3271 9.5804 59.9717 8.84668C59.6162 8.1084 59.4362 7.26074 59.4316 6.30371V5.81152C59.4316 4.83171 59.6071 3.97038 59.958 3.22754C60.3135 2.48014 60.8125 1.9082 61.4551 1.51172C62.1022 1.11068 62.8405 0.910156 63.6699 0.910156C64.4993 0.910156 65.2354 1.11068 65.8779 1.51172C66.5251 1.9082 67.0241 2.48014 67.375 3.22754C67.7305 3.97038 67.9082 4.82943 67.9082 5.80469V6.24902ZM65.8301 5.79785C65.8301 4.75423 65.6432 3.96126 65.2695 3.41895C64.8958 2.87663 64.3626 2.60547 63.6699 2.60547C62.9818 2.60547 62.4508 2.87435 62.0771 3.41211C61.7035 3.94531 61.5143 4.72917 61.5098 5.76367V6.24902C61.5098 7.2653 61.6966 8.05371 62.0703 8.61426C62.444 9.1748 62.9818 9.45508 63.6836 9.45508C64.3717 9.45508 64.9004 9.1862 65.2695 8.64844C65.6387 8.10612 65.8255 7.31771 65.8301 6.2832V5.79785ZM72.0781 1.04688L74.6348 8.26562L77.1777 1.04688H79.8711V11H77.8135V8.2793L78.0186 3.58301L75.332 11H73.9238L71.2441 3.58984L71.4492 8.2793V11H69.3984V1.04688H72.0781ZM88.5801 5.53125L90.6514 1.04688H92.8936L89.626 7.39062V11H87.541V7.39062L84.2734 1.04688H86.5225L88.5801 5.53125ZM101.773 6.24902C101.773 7.22884 101.6 8.08789 101.254 8.82617C100.908 9.56445 100.411 10.1341 99.7637 10.5352C99.1211 10.9362 98.3828 11.1367 97.5488 11.1367C96.724 11.1367 95.988 10.9385 95.3408 10.542C94.6937 10.1455 94.1924 9.5804 93.8369 8.84668C93.4814 8.1084 93.3014 7.26074 93.2969 6.30371V5.81152C93.2969 4.83171 93.4723 3.97038 93.8232 3.22754C94.1787 2.48014 94.6777 1.9082 95.3203 1.51172C95.9674 1.11068 96.7057 0.910156 97.5352 0.910156C98.3646 0.910156 99.1006 1.11068 99.7432 1.51172C100.39 1.9082 100.889 2.48014 101.24 3.22754C101.596 3.97038 101.773 4.82943 101.773 5.80469V6.24902ZM99.6953 5.79785C99.6953 4.75423 99.5085 3.96126 99.1348 3.41895C98.7611 2.87663 98.2279 2.60547 97.5352 2.60547C96.847 2.60547 96.3161 2.87435 95.9424 3.41211C95.5687 3.94531 95.3796 4.72917 95.375 5.76367V6.24902C95.375 7.2653 95.5618 8.05371 95.9355 8.61426C96.3092 9.1748 96.847 9.45508 97.5488 9.45508C98.237 9.45508 98.7656 9.1862 99.1348 8.64844C99.5039 8.10612 99.6908 7.31771 99.6953 6.2832V5.79785ZM110.797 1.04688V7.60254C110.797 8.69173 110.455 9.55306 109.771 10.1865C109.092 10.82 108.163 11.1367 106.982 11.1367C105.82 11.1367 104.897 10.8291 104.214 10.2139C103.53 9.59863 103.182 8.75326 103.168 7.67773V1.04688H105.219V7.61621C105.219 8.2679 105.374 8.74414 105.684 9.04492C105.998 9.34115 106.431 9.48926 106.982 9.48926C108.135 9.48926 108.721 8.88314 108.739 7.6709V1.04688H110.797ZM119.971 2.70801H116.922V11H114.871V2.70801H111.863V1.04688H119.971V2.70801ZM128.68 1.04688V7.60254C128.68 8.69173 128.338 9.55306 127.654 10.1865C126.975 10.82 126.046 11.1367 124.865 11.1367C123.703 11.1367 122.78 10.8291 122.097 10.2139C121.413 9.59863 121.064 8.75326 121.051 7.67773V1.04688H123.102V7.61621C123.102 8.2679 123.257 8.74414 123.566 9.04492C123.881 9.34115 124.314 9.48926 124.865 9.48926C126.018 9.48926 126.604 8.88314 126.622 7.6709V1.04688H128.68ZM130.361 11V1.04688H133.848C135.055 1.04688 135.971 1.2793 136.596 1.74414C137.22 2.20443 137.532 2.88118 137.532 3.77441C137.532 4.26204 137.407 4.69271 137.156 5.06641C136.906 5.43555 136.557 5.70671 136.11 5.87988C136.621 6.00749 137.022 6.26497 137.313 6.65234C137.61 7.03971 137.758 7.51367 137.758 8.07422C137.758 9.03125 137.452 9.75586 136.842 10.248C136.231 10.7402 135.361 10.9909 134.23 11H130.361ZM132.412 6.66602V9.35254H134.169C134.652 9.35254 135.028 9.23861 135.297 9.01074C135.57 8.77832 135.707 8.45931 135.707 8.05371C135.707 7.14225 135.235 6.67969 134.292 6.66602H132.412ZM132.412 5.2168H133.93C134.964 5.19857 135.481 4.78613 135.481 3.97949C135.481 3.52832 135.349 3.20475 135.085 3.00879C134.825 2.80827 134.413 2.70801 133.848 2.70801H132.412V5.2168ZM145.291 6.68652H141.354V9.35254H145.975V11H139.303V1.04688H145.961V2.70801H141.354V5.08008H145.291V6.68652Z" fill="#AAAAAA"/>
</svg>
