<svg width="224" height="32" viewBox="0 0 224 32" fill="none" xmlns="http://www.w3.org/2000/svg">
<path d="M30.0498 18.3887C30.0498 18.0013 29.9131 17.7051 29.6396 17.5C29.3662 17.2904 28.874 17.0716 28.1631 16.8438C27.4521 16.6113 26.8893 16.3835 26.4746 16.1602C25.3444 15.5495 24.7793 14.7269 24.7793 13.6924C24.7793 13.1546 24.9297 12.6761 25.2305 12.2568C25.5358 11.833 25.971 11.5026 26.5361 11.2656C27.1058 11.0286 27.7438 10.9102 28.4502 10.9102C29.1611 10.9102 29.7946 11.04 30.3506 11.2998C30.9066 11.555 31.3372 11.9173 31.6426 12.3867C31.9525 12.8561 32.1074 13.3893 32.1074 13.9863H30.0566C30.0566 13.5306 29.9131 13.1774 29.626 12.9268C29.3389 12.6715 28.9355 12.5439 28.416 12.5439C27.9147 12.5439 27.5251 12.651 27.2471 12.8652C26.9691 13.0749 26.8301 13.3529 26.8301 13.6992C26.8301 14.0228 26.9919 14.2939 27.3154 14.5127C27.6436 14.7314 28.1243 14.9365 28.7578 15.1279C29.9245 15.4788 30.7744 15.9141 31.3076 16.4336C31.8408 16.9531 32.1074 17.6003 32.1074 18.375C32.1074 19.2363 31.7816 19.9131 31.1299 20.4053C30.4782 20.8929 29.6009 21.1367 28.498 21.1367C27.7324 21.1367 27.0352 20.9977 26.4062 20.7197C25.7773 20.4372 25.2965 20.0521 24.9639 19.5645C24.6357 19.0768 24.4717 18.5117 24.4717 17.8691H26.5293C26.5293 18.9674 27.1855 19.5166 28.498 19.5166C28.9857 19.5166 29.3662 19.4186 29.6396 19.2227C29.9131 19.0221 30.0498 18.7441 30.0498 18.3887ZM41.0352 11.0469V17.6025C41.0352 18.6917 40.6934 19.5531 40.0098 20.1865C39.3307 20.82 38.401 21.1367 37.2207 21.1367C36.0586 21.1367 35.1357 20.8291 34.4521 20.2139C33.7686 19.5986 33.4199 18.7533 33.4062 17.6777V11.0469H35.457V17.6162C35.457 18.2679 35.612 18.7441 35.9219 19.0449C36.2363 19.3411 36.6693 19.4893 37.2207 19.4893C38.3737 19.4893 38.9593 18.8831 38.9775 17.6709V11.0469H41.0352ZM42.7168 21V11.0469H46.2031C47.4108 11.0469 48.3268 11.2793 48.9512 11.7441C49.5755 12.2044 49.8877 12.8812 49.8877 13.7744C49.8877 14.262 49.7624 14.6927 49.5117 15.0664C49.2611 15.4355 48.9124 15.7067 48.4658 15.8799C48.9762 16.0075 49.3773 16.265 49.6689 16.6523C49.9652 17.0397 50.1133 17.5137 50.1133 18.0742C50.1133 19.0312 49.8079 19.7559 49.1973 20.248C48.5866 20.7402 47.7161 20.9909 46.5859 21H42.7168ZM44.7676 16.666V19.3525H46.5244C47.0075 19.3525 47.3835 19.2386 47.6523 19.0107C47.9258 18.7783 48.0625 18.4593 48.0625 18.0537C48.0625 17.1423 47.5908 16.6797 46.6475 16.666H44.7676ZM44.7676 15.2168H46.2852C47.3197 15.1986 47.8369 14.7861 47.8369 13.9795C47.8369 13.5283 47.7048 13.2048 47.4404 13.0088C47.1807 12.8083 46.7682 12.708 46.2031 12.708H44.7676V15.2168ZM56.8193 18.3887C56.8193 18.0013 56.6826 17.7051 56.4092 17.5C56.1357 17.2904 55.6436 17.0716 54.9326 16.8438C54.2217 16.6113 53.6589 16.3835 53.2441 16.1602C52.1139 15.5495 51.5488 14.7269 51.5488 13.6924C51.5488 13.1546 51.6992 12.6761 52 12.2568C52.3053 11.833 52.7406 11.5026 53.3057 11.2656C53.8753 11.0286 54.5133 10.9102 55.2197 10.9102C55.9307 10.9102 56.5641 11.04 57.1201 11.2998C57.6761 11.555 58.1068 11.9173 58.4121 12.3867C58.722 12.8561 58.877 13.3893 58.877 13.9863H56.8262C56.8262 13.5306 56.6826 13.1774 56.3955 12.9268C56.1084 12.6715 55.7051 12.5439 55.1855 12.5439C54.6842 12.5439 54.2946 12.651 54.0166 12.8652C53.7386 13.0749 53.5996 13.3529 53.5996 13.6992C53.5996 14.0228 53.7614 14.2939 54.085 14.5127C54.4131 14.7314 54.8939 14.9365 55.5273 15.1279C56.694 15.4788 57.5439 15.9141 58.0771 16.4336C58.6104 16.9531 58.877 17.6003 58.877 18.375C58.877 19.2363 58.5511 19.9131 57.8994 20.4053C57.2477 20.8929 56.3704 21.1367 55.2676 21.1367C54.502 21.1367 53.8047 20.9977 53.1758 20.7197C52.5469 20.4372 52.0661 20.0521 51.7334 19.5645C51.4053 19.0768 51.2412 18.5117 51.2412 17.8691H53.2988C53.2988 18.9674 53.9551 19.5166 55.2676 19.5166C55.7552 19.5166 56.1357 19.4186 56.4092 19.2227C56.6826 19.0221 56.8193 18.7441 56.8193 18.3887ZM68.085 17.6846C68.0075 18.7555 67.611 19.5986 66.8955 20.2139C66.1846 20.8291 65.2458 21.1367 64.0791 21.1367C62.8031 21.1367 61.7982 20.7083 61.0645 19.8516C60.3353 18.9902 59.9707 17.8099 59.9707 16.3105V15.7021C59.9707 14.7451 60.1393 13.902 60.4766 13.1729C60.8138 12.4437 61.2946 11.8854 61.9189 11.498C62.5479 11.1061 63.277 10.9102 64.1064 10.9102C65.2549 10.9102 66.18 11.2178 66.8818 11.833C67.5837 12.4482 67.9893 13.3118 68.0986 14.4238H66.0479C65.9977 13.7812 65.8177 13.3164 65.5078 13.0293C65.2025 12.7376 64.7354 12.5918 64.1064 12.5918C63.4229 12.5918 62.9102 12.8379 62.5684 13.3301C62.2311 13.8177 62.0579 14.5765 62.0488 15.6064V16.3584C62.0488 17.4339 62.2106 18.2201 62.5342 18.7168C62.8623 19.2135 63.3773 19.4619 64.0791 19.4619C64.7126 19.4619 65.1842 19.3184 65.4941 19.0312C65.8086 18.7396 65.9886 18.2907 66.0342 17.6846H68.085ZM73.1162 17.3564H71.4824V21H69.4316V11.0469H73.1299C74.3057 11.0469 75.2126 11.3089 75.8506 11.833C76.4886 12.3571 76.8076 13.0977 76.8076 14.0547C76.8076 14.7337 76.6595 15.3011 76.3633 15.7568C76.0716 16.208 75.6273 16.568 75.0303 16.8369L77.1836 20.9043V21H74.9824L73.1162 17.3564ZM71.4824 15.6953H73.1367C73.6517 15.6953 74.0505 15.5654 74.333 15.3057C74.6156 15.0413 74.7568 14.679 74.7568 14.2188C74.7568 13.7493 74.6224 13.3802 74.3535 13.1113C74.0892 12.8424 73.6813 12.708 73.1299 12.708H71.4824V15.6953ZM80.5537 21H78.5029V11.0469H80.5537V21ZM84.5117 17.4932V21H82.4609V11.0469H86.3438C87.0911 11.0469 87.7474 11.1836 88.3125 11.457C88.8822 11.7305 89.3197 12.1201 89.625 12.626C89.9303 13.1273 90.083 13.6992 90.083 14.3418C90.083 15.3171 89.748 16.0872 89.0781 16.6523C88.4128 17.2129 87.4899 17.4932 86.3096 17.4932H84.5117ZM84.5117 15.832H86.3438C86.8861 15.832 87.2985 15.7044 87.5811 15.4492C87.8682 15.194 88.0117 14.8294 88.0117 14.3555C88.0117 13.8678 87.8682 13.4736 87.5811 13.1729C87.2939 12.8721 86.8975 12.7171 86.3916 12.708H84.5117V15.832ZM98.9902 12.708H95.9414V21H93.8906V12.708H90.8828V11.0469H98.9902V12.708ZM102.347 21H100.296V11.0469H102.347V21ZM112.43 16.249C112.43 17.2288 112.257 18.0879 111.91 18.8262C111.564 19.5645 111.067 20.1341 110.42 20.5352C109.777 20.9362 109.039 21.1367 108.205 21.1367C107.38 21.1367 106.644 20.9385 105.997 20.542C105.35 20.1455 104.849 19.5804 104.493 18.8467C104.138 18.1084 103.958 17.2607 103.953 16.3037V15.8115C103.953 14.8317 104.129 13.9704 104.479 13.2275C104.835 12.4801 105.334 11.9082 105.977 11.5117C106.624 11.1107 107.362 10.9102 108.191 10.9102C109.021 10.9102 109.757 11.1107 110.399 11.5117C111.047 11.9082 111.546 12.4801 111.896 13.2275C112.252 13.9704 112.43 14.8294 112.43 15.8047V16.249ZM110.352 15.7979C110.352 14.7542 110.165 13.9613 109.791 13.4189C109.417 12.8766 108.884 12.6055 108.191 12.6055C107.503 12.6055 106.972 12.8743 106.599 13.4121C106.225 13.9453 106.036 14.7292 106.031 15.7637V16.249C106.031 17.2653 106.218 18.0537 106.592 18.6143C106.965 19.1748 107.503 19.4551 108.205 19.4551C108.893 19.4551 109.422 19.1862 109.791 18.6484C110.16 18.1061 110.347 17.3177 110.352 16.2832V15.7979ZM122.014 21H119.963L115.971 14.4512V21H113.92V11.0469H115.971L119.97 17.6094V11.0469H122.014V21ZM128.966 18.3887C128.966 18.0013 128.829 17.7051 128.556 17.5C128.282 17.2904 127.79 17.0716 127.079 16.8438C126.368 16.6113 125.805 16.3835 125.391 16.1602C124.26 15.5495 123.695 14.7269 123.695 13.6924C123.695 13.1546 123.846 12.6761 124.146 12.2568C124.452 11.833 124.887 11.5026 125.452 11.2656C126.022 11.0286 126.66 10.9102 127.366 10.9102C128.077 10.9102 128.711 11.04 129.267 11.2998C129.823 11.555 130.253 11.9173 130.559 12.3867C130.868 12.8561 131.023 13.3893 131.023 13.9863H128.973C128.973 13.5306 128.829 13.1774 128.542 12.9268C128.255 12.6715 127.852 12.5439 127.332 12.5439C126.831 12.5439 126.441 12.651 126.163 12.8652C125.885 13.0749 125.746 13.3529 125.746 13.6992C125.746 14.0228 125.908 14.2939 126.231 14.5127C126.56 14.7314 127.04 14.9365 127.674 15.1279C128.84 15.4788 129.69 15.9141 130.224 16.4336C130.757 16.9531 131.023 17.6003 131.023 18.375C131.023 19.2363 130.698 19.9131 130.046 20.4053C129.394 20.8929 128.517 21.1367 127.414 21.1367C126.648 21.1367 125.951 20.9977 125.322 20.7197C124.693 20.4372 124.213 20.0521 123.88 19.5645C123.552 19.0768 123.388 18.5117 123.388 17.8691H125.445C125.445 18.9674 126.102 19.5166 127.414 19.5166C127.902 19.5166 128.282 19.4186 128.556 19.2227C128.829 19.0221 128.966 18.7441 128.966 18.3887Z" fill="#AAAAAA"/>
</svg>
